<?xml version="1.0" standalone="no"?>
<!DOCTYPE svg PUBLIC "-//W3C//DTD SVG 20010904//EN"
 "http://www.w3.org/TR/2001/REC-SVG-20010904/DTD/svg10.dtd">
<svg version="1.0" xmlns="http://www.w3.org/2000/svg"
 width="1696.000000pt" height="1696.000000pt" viewBox="0 0 1696.000000 1696.000000"
 preserveAspectRatio="xMidYMid meet">

<g transform="translate(0.000000,1696.000000) scale(0.100000,-0.100000)"
fill="#000000" stroke="none">
<path d="M7775 16850 c-3 -6 1 -7 9 -4 18 7 21 14 7 14 -6 0 -13 -4 -16 -10z"/>
<path d="M6500 16708 c0 -4 6 -8 14 -8 8 0 17 4 20 8 2 4 -4 8 -15 8 -10 0
-19 -4 -19 -8z"/>
<path d="M7710 16695 c0 -8 7 -15 15 -15 8 0 15 4 15 9 0 5 -7 11 -15 15 -9 3
-15 0 -15 -9z"/>
<path d="M9140 16695 c7 -8 17 -12 22 -9 6 4 5 10 -3 15 -22 14 -33 10 -19 -6z"/>
<path d="M6420 16689 c0 -5 5 -7 10 -4 6 3 10 8 10 11 0 2 -4 4 -10 4 -5 0
-10 -5 -10 -11z"/>
<path d="M6526 16685 c-20 -15 -20 -15 0 -15 12 0 21 7 21 15 0 8 -1 15 -1 15
-1 0 -10 -7 -20 -15z"/>
<path d="M7595 16691 c-3 -5 -1 -12 4 -15 5 -4 12 0 15 6 3 7 4 5 3 -6 -1 -12
5 -20 16 -22 24 -3 35 -14 16 -14 -8 -1 -45 -5 -84 -11 -38 -6 -83 -10 -100
-10 -16 1 -37 -3 -44 -8 -21 -14 31 -25 67 -15 15 4 36 9 47 10 34 5 59 11 78
19 9 4 24 5 32 2 8 -4 17 -2 20 3 3 5 12 7 20 4 8 -4 13 -10 10 -14 -3 -4 12
-4 33 1 20 5 41 9 45 9 5 0 5 5 2 10 -3 6 1 10 10 10 9 0 14 -4 11 -9 -3 -4
23 -9 58 -9 62 -1 64 0 62 24 -1 21 -2 22 -13 8 -8 -11 -20 -15 -35 -11 -12 4
-28 1 -35 -4 -9 -8 -17 -7 -28 5 -12 11 -22 13 -41 6 -40 -15 -104 -12 -110 5
-4 8 -10 12 -15 9 -5 -3 -9 -1 -9 5 0 5 8 12 18 14 9 3 3 5 -15 6 -17 0 -34
-3 -38 -8z"/>
<path d="M8487 16693 c-4 -3 -7 -13 -7 -22 1 -13 3 -13 11 2 11 19 8 33 -4 20z"/>
<path d="M8660 16693 c0 -2 11 -7 23 -12 21 -8 34 -40 18 -42 -3 0 -18 -3 -33
-5 -16 -3 -28 0 -28 5 0 6 6 8 14 5 8 -3 17 -1 21 5 4 7 0 8 -11 4 -13 -5 -15
-3 -9 8 6 9 -1 7 -20 -5 -27 -18 -54 -20 -304 -23 -151 -2 -272 -1 -269 2 3 4
40 7 82 8 42 0 76 5 76 9 0 4 -13 8 -29 8 -16 0 -32 6 -34 13 -3 7 -6 4 -6 -6
-1 -10 -6 -15 -11 -12 -18 11 -80 13 -86 3 -4 -6 -10 -5 -15 3 -6 10 -9 11 -9
2 0 -7 -10 -13 -22 -13 -17 0 -19 -3 -9 -9 7 -5 22 -6 32 -4 10 3 19 0 19 -6
0 -7 -28 -11 -77 -12 -163 -2 -203 -4 -203 -10 0 -3 -6 -6 -12 -6 -7 0 -38 -3
-68 -7 -38 -4 -50 -3 -40 4 9 6 10 10 3 10 -6 0 -15 -5 -18 -11 -4 -6 -13 -8
-21 -5 -8 3 -14 0 -14 -7 0 -8 -4 -7 -10 3 -8 12 -12 12 -18 2 -5 -7 -38 -14
-86 -16 -43 -3 -80 -7 -84 -10 -9 -10 -22 -7 -22 5 0 5 5 7 10 4 6 -3 10 -1
10 4 0 6 -7 11 -15 11 -8 0 -15 -6 -15 -14 0 -7 -11 -16 -25 -18 -14 -3 -25
-2 -25 3 0 4 10 10 23 12 19 4 18 4 -5 6 -18 1 -28 -4 -28 -13 0 -10 -16 -17
-47 -21 -27 -3 -90 -13 -140 -21 -51 -8 -99 -14 -105 -13 -7 1 -20 0 -28 -4
-32 -12 -81 -17 -75 -7 3 6 16 10 29 10 12 0 30 6 40 13 16 12 15 13 -6 14
-13 1 -56 -6 -97 -17 -41 -10 -78 -17 -83 -14 -4 3 -13 2 -20 -2 -20 -12 24
-22 57 -13 32 10 71 12 64 5 -3 -3 -20 -8 -38 -11 -19 -3 -38 -8 -42 -10 -4
-3 -32 -6 -63 -6 -31 -1 -56 -6 -56 -10 0 -5 -14 -9 -31 -9 -16 0 -28 -4 -25
-8 3 -5 -15 -13 -39 -19 -25 -6 -45 -6 -45 -2 0 5 -7 9 -15 9 -8 0 -15 -5 -15
-11 0 -8 -4 -8 -13 0 -10 7 -31 8 -73 1 -32 -6 -63 -10 -68 -10 -19 0 9 -18
34 -23 14 -2 4 -3 -22 0 -42 3 -47 2 -42 -14 5 -17 5 -17 -6 0 -6 9 -16 15
-22 11 -6 -4 -5 -10 3 -15 11 -7 10 -9 -3 -9 -9 0 -20 5 -23 10 -8 13 -72 13
-80 0 -3 -5 -16 -15 -28 -20 -21 -11 -21 -10 -3 4 18 15 16 15 -27 11 -25 -3
-49 0 -52 5 -3 6 -12 10 -18 10 -7 0 -4 -7 6 -14 16 -12 16 -14 2 -20 -9 -3
-13 -2 -10 4 5 8 -13 8 -82 -2 -7 -1 -10 -5 -7 -10 3 -4 0 -8 -5 -8 -6 0 -11
-7 -11 -15 0 -8 5 -15 11 -15 5 0 8 4 4 9 -3 6 8 5 27 -1 18 -5 42 -10 53 -9
15 0 16 -2 6 -8 -8 -5 -28 -5 -45 0 -38 11 -36 11 -34 -3 2 -7 10 -16 18 -20
10 -4 5 -7 -13 -7 -17 -1 -26 3 -22 9 3 6 -1 13 -9 16 -9 3 -14 10 -11 14 3 5
0 12 -6 16 -8 4 -9 3 -5 -4 4 -7 0 -12 -11 -13 -10 0 -13 -3 -5 -6 6 -2 12
-11 12 -19 0 -9 5 -12 13 -8 7 4 9 3 4 -2 -5 -5 -12 -10 -15 -10 -31 -7 -51
-18 -45 -27 4 -6 1 -7 -7 -2 -10 6 -9 11 5 21 10 7 23 15 29 17 6 3 1 13 -13
25 -13 12 -28 19 -34 15 -6 -3 -7 -1 -3 5 4 7 15 12 24 13 11 0 12 3 5 6 -7 2
-13 13 -13 23 0 10 6 21 13 24 6 4 3 5 -8 3 -15 -3 -21 1 -21 14 0 10 3 16 7
13 4 -2 9 2 12 8 3 9 11 6 26 -9 22 -23 41 -30 41 -14 0 4 12 6 28 3 15 -2 25
-2 22 1 -3 3 -17 8 -30 10 -67 13 -89 30 -50 40 13 3 18 1 13 -6 -5 -8 -2 -8
8 0 11 9 25 10 47 4 17 -5 33 -6 37 -3 3 4 2 -5 -4 -20 -8 -22 -8 -26 5 -21
10 4 12 1 7 -13 -4 -12 -3 -15 6 -10 7 5 11 17 8 27 -3 10 -2 21 3 24 4 3 10
-5 13 -17 4 -12 9 -20 12 -16 11 10 14 48 4 53 -5 4 -9 11 -9 17 0 6 3 8 7 4
4 -3 13 4 21 16 13 23 13 23 7 -5 -5 -26 -4 -27 15 -17 12 6 28 9 36 6 18 -7
44 3 44 16 0 6 -5 6 -14 -1 -11 -9 -17 -8 -29 4 -12 11 -17 12 -20 2 -2 -6 -8
-9 -12 -5 -4 4 -3 14 4 22 6 8 9 28 6 45 -3 20 -1 31 6 31 6 0 9 -9 6 -20 -5
-20 7 -28 18 -10 3 5 13 6 22 3 10 -4 14 -2 10 4 -4 6 0 14 9 17 8 3 13 10 10
15 -4 5 1 16 10 25 8 9 13 20 10 25 -4 5 -1 12 4 14 6 3 5 4 -2 3 -7 -1 -17
-12 -23 -24 -11 -25 -30 -30 -21 -6 5 14 1 15 -31 9 -21 -3 -42 -11 -47 -16
-6 -5 -21 -9 -35 -9 -35 0 -47 -11 -45 -38 1 -12 -5 -26 -14 -31 -10 -6 -11
-10 -3 -15 6 -4 11 -2 11 3 0 6 8 11 18 11 15 -1 15 -2 1 -13 -9 -7 -14 -19
-11 -27 3 -8 -6 -2 -19 14 -16 20 -19 31 -11 34 7 2 10 8 6 13 -3 5 1 9 8 9 9
0 9 3 -2 10 -22 14 -30 12 -24 -5 4 -8 2 -15 -4 -15 -6 0 -12 5 -14 11 -5 16
-76 -8 -103 -34 -11 -11 -14 -17 -7 -13 7 5 12 1 12 -9 0 -9 -4 -14 -9 -11 -5
3 -11 -1 -15 -9 -6 -17 -26 -20 -26 -4 0 5 5 7 10 4 6 -3 10 -1 10 5 0 8 -9
10 -25 6 -14 -4 -25 -2 -25 4 0 15 -26 12 -40 -5 -7 -9 -19 -14 -27 -11 -8 4
-11 1 -7 -5 4 -7 0 -9 -14 -5 -21 7 -132 -30 -144 -48 -4 -6 -10 -8 -13 -4 -4
3 -20 2 -37 -4 -22 -8 -26 -13 -16 -19 10 -7 10 -9 -2 -9 -13 0 -13 -1 0 -10
11 -7 11 -10 2 -10 -7 0 -10 -5 -6 -12 4 -7 3 -8 -4 -4 -7 4 -12 16 -12 27 0
22 -18 26 -26 5 -3 -8 -13 -12 -26 -8 -15 3 -19 1 -14 -7 4 -6 10 -10 14 -7 4
2 15 1 25 -3 16 -6 16 -9 -7 -30 -21 -20 -24 -21 -20 -5 3 13 -3 23 -21 31
-20 9 -25 8 -25 -3 0 -8 4 -14 8 -14 5 0 9 -6 9 -13 0 -8 -6 -14 -13 -14 -7 0
-10 7 -7 15 5 11 1 13 -15 7 -13 -3 -22 -2 -22 4 0 10 -189 -63 -199 -77 -4
-4 -10 -7 -16 -7 -23 0 -124 -48 -119 -56 3 -5 -2 -9 -10 -9 -9 0 -16 -4 -16
-10 0 -5 -7 -7 -15 -4 -18 7 -75 -14 -75 -28 0 -5 -4 -6 -10 -3 -5 3 -10 -1
-10 -10 0 -9 4 -14 9 -11 16 10 22 -25 7 -40 -20 -19 -32 -18 -16 2 11 12 11
18 -2 31 -15 14 -20 14 -62 -2 -26 -10 -43 -22 -39 -28 3 -5 1 -7 -5 -3 -11 6
-172 -69 -183 -86 -3 -5 -9 -9 -13 -9 -14 2 -188 -91 -203 -108 -9 -11 -22
-17 -29 -14 -8 3 -14 0 -14 -6 0 -6 -3 -10 -7 -9 -16 5 -133 -67 -129 -79 3
-7 -1 -10 -9 -7 -16 6 -126 -56 -119 -67 2 -4 -4 -6 -14 -5 -9 0 -16 -4 -15
-11 2 -7 -3 -10 -11 -7 -8 3 -24 -4 -35 -15 -12 -12 -23 -20 -26 -18 -2 1 -13
-6 -25 -15 -11 -10 -20 -15 -20 -13 0 11 -371 -244 -539 -371 -751 -565 -1417
-1264 -1927 -2024 -178 -264 -382 -600 -366 -600 4 0 2 -4 -4 -8 -16 -10 -145
-251 -240 -447 -362 -751 -607 -1526 -739 -2340 -162 -1001 -145 -1999 50
-2992 295 -1494 972 -2855 1994 -4008 151 -170 511 -530 681 -681 780 -690
1645 -1217 2601 -1585 1407 -542 2940 -697 4429 -449 2399 400 4520 1819 5802
3880 198 319 447 782 453 843 1 15 5 26 9 25 11 -4 28 31 21 42 -3 6 0 13 9
16 8 3 17 12 20 20 4 10 2 13 -7 8 -6 -4 -4 2 6 14 11 12 16 26 11 33 -4 7 -3
10 3 6 6 -4 13 0 16 7 3 8 1 17 -6 20 -7 2 -3 5 8 6 l20 1 -20 16 c-17 13 -17
15 -2 9 15 -5 23 5 44 51 15 31 26 63 26 70 0 7 5 13 10 13 6 0 7 3 4 7 -4 3
-2 12 3 19 9 10 13 22 23 69 1 6 10 21 20 35 9 13 17 30 17 36 0 6 7 25 16 42
8 18 12 37 8 43 -4 8 -3 9 4 5 11 -6 17 12 13 37 -1 4 6 15 14 24 9 8 13 18 9
22 -4 3 -9 0 -11 -6 -3 -7 -9 -13 -14 -13 -6 0 -7 5 -4 10 3 6 1 10 -4 10 -6
0 -11 5 -11 11 0 6 8 8 19 4 19 -6 30 8 38 48 2 11 -1 16 -8 12 -6 -4 -8 -12
-6 -19 3 -6 -2 -17 -9 -24 -16 -14 -17 -10 -15 43 2 53 4 59 22 79 18 19 19
19 40 0 22 -19 22 -19 11 2 -6 12 -8 25 -4 29 4 5 -1 5 -10 2 -10 -3 -20 -2
-23 3 -4 6 0 10 8 10 18 0 42 28 33 38 -4 4 -14 -1 -21 -12 -13 -17 -14 -16
-12 9 1 16 8 30 15 31 7 1 8 0 2 -3 -15 -7 -12 -23 4 -17 19 7 30 -14 17 -30
-8 -9 -8 -21 -2 -37 9 -23 10 -22 10 8 1 17 5 34 11 38 5 3 6 13 3 22 -4 10
-2 14 4 10 5 -3 20 29 35 74 14 44 21 82 17 85 -5 2 -5 12 -2 21 4 11 3 14 -5
9 -7 -4 -12 -1 -12 8 0 8 10 20 23 26 20 10 21 10 4 -3 -13 -11 -15 -17 -6
-22 11 -8 28 10 30 33 3 27 4 31 11 37 4 4 4 13 2 20 -4 10 -14 11 -35 5 -33
-10 -38 3 -14 36 8 12 13 23 12 25 -1 2 8 -7 21 -20 12 -13 25 -21 28 -18 4 4
-4 15 -17 26 -13 11 -19 20 -13 21 5 0 15 -5 22 -12 13 -13 27 -5 18 10 -3 6
-17 9 -31 8 -23 -3 -43 20 -29 33 4 3 9 0 11 -6 5 -15 23 -17 23 -4 0 5 -10
13 -21 16 -17 6 -18 9 -8 16 7 4 10 11 7 14 -11 11 -30 -6 -24 -21 3 -7 1 -16
-4 -19 -6 -4 -10 -11 -10 -16 0 -6 5 -7 10 -4 6 3 10 1 10 -4 0 -6 -4 -11 -10
-11 -5 0 -7 -7 -4 -15 9 -22 -14 -18 -26 5 -6 11 -8 20 -5 20 3 0 0 6 -7 14
-9 10 -17 11 -25 4 -15 -12 -17 0 -4 21 5 8 11 9 15 3 7 -12 46 -12 46 0 0 4
-14 15 -31 23 -24 13 -29 21 -24 38 6 22 6 22 -15 -2 -17 -20 -22 -22 -37 -10
-12 10 -14 10 -9 2 4 -7 2 -13 -3 -13 -6 0 -10 -3 -9 -7 1 -5 -4 -19 -11 -32
-9 -16 -10 -26 -2 -34 7 -7 7 -16 0 -29 -6 -10 -6 -18 0 -18 13 0 20 25 14 49
-4 16 -2 20 10 15 8 -3 18 -1 22 5 10 17 21 13 21 -9 0 -13 -5 -19 -13 -16
-12 5 -15 -1 -12 -20 0 -4 -5 -11 -13 -16 -9 -6 -6 -7 9 -3 32 9 77 -39 63
-66 -6 -10 -19 -19 -30 -19 -22 0 -35 16 -20 25 5 3 10 1 10 -4 0 -17 27 -13
34 5 4 11 2 15 -8 11 -10 -4 -13 -1 -10 7 5 13 -24 31 -34 21 -3 -3 0 -5 7 -5
7 0 9 -4 6 -10 -9 -14 -42 -12 -48 3 -3 9 -8 9 -18 -2 -9 -9 -9 -11 -1 -7 6 4
12 2 12 -3 0 -6 6 -11 14 -11 16 0 26 -20 22 -46 -2 -12 -10 -18 -22 -16 -15
3 -16 1 -5 -12 7 -8 10 -20 6 -26 -3 -5 4 -14 17 -19 20 -8 21 -10 6 -16 -10
-4 -15 -11 -12 -16 3 -5 9 -7 14 -4 5 3 12 0 16 -6 4 -8 3 -9 -4 -5 -8 5 -11
-2 -8 -23 2 -17 -1 -28 -6 -25 -5 3 -7 13 -4 21 4 10 1 13 -13 8 -11 -3 -22
-1 -26 4 -3 7 0 8 9 5 9 -3 16 -1 16 5 0 6 -5 11 -11 11 -6 0 -9 9 -6 20 3 11
1 20 -4 20 -5 0 -9 7 -9 15 0 8 5 15 12 15 6 0 4 6 -7 14 -11 8 -18 25 -17 45
1 31 -12 42 -21 19 -3 -7 -6 -3 -6 10 -1 15 -5 21 -13 16 -7 -4 -8 -3 -4 4 4
7 14 12 22 12 9 0 14 11 15 33 0 17 2 41 5 52 2 11 5 44 6 73 1 31 5 47 10 40
9 -16 9 -16 13 47 3 64 4 65 13 64 20 -3 25 2 12 12 -12 8 -12 12 -2 16 9 3
10 9 3 17 -11 13 -4 56 10 56 12 0 11 -7 -1 -31 -8 -15 -7 -19 5 -19 8 0 15 7
15 16 0 9 5 12 12 8 7 -5 8 -3 2 7 -5 8 -7 22 -6 32 2 9 -2 17 -7 17 -6 0 -11
5 -11 10 0 12 22 9 32 -4 6 -9 1 79 -6 100 -2 6 2 11 10 12 8 1 21 3 29 4 20
2 19 18 0 18 -11 0 -14 7 -11 23 9 39 9 61 2 89 -5 16 -3 34 4 45 10 16 10 16
5 -4 -3 -12 -2 -24 2 -26 5 -3 9 2 10 11 4 41 11 98 12 106 0 5 8 2 18 -5 15
-13 15 -12 2 9 -8 12 -17 22 -21 22 -11 0 -2 34 10 38 8 2 10 -3 6 -15 -5 -14
-4 -15 4 -3 7 9 7 18 1 26 -5 6 -6 20 -2 29 4 13 3 16 -6 10 -10 -6 -11 -3 -1
15 6 12 10 31 7 41 -3 10 -1 19 4 19 5 0 9 7 9 15 0 8 -7 15 -16 15 -12 0 -14
7 -10 28 3 15 8 47 11 72 7 59 35 268 41 300 2 14 6 61 10 105 7 97 13 118 24
90 7 -15 9 -10 9 20 0 32 -2 36 -10 20 -7 -14 -8 -5 -5 34 2 29 9 57 16 61 8
5 9 9 1 11 -7 3 -8 59 -3 194 10 238 5 720 -8 842 -9 86 -12 209 -3 153 12
-78 15 -90 24 -85 5 4 7 11 4 16 -4 5 -8 34 -11 66 -4 52 -14 88 -14 49 0 -9
-4 -14 -10 -11 -5 3 -10 32 -9 63 0 41 3 51 9 37 5 -11 9 -18 10 -15 8 28 8
50 0 55 -6 3 -10 1 -10 -4 0 -6 -4 -11 -9 -11 -5 0 -12 38 -16 85 -5 65 -4 90
7 102 11 14 11 16 -4 11 -24 -10 -30 66 -6 83 9 7 14 17 12 21 -3 5 -11 2 -18
-7 -10 -14 -12 -11 -14 17 -1 22 1 28 7 20 7 -11 9 -11 14 1 3 9 -1 17 -13 20
-23 6 -39 91 -22 118 10 15 9 17 -3 13 -11 -5 -15 3 -17 30 -1 20 -3 50 -5 66
-2 17 -5 41 -6 55 -1 14 -5 25 -8 25 -6 0 -8 15 -12 80 -1 17 -5 30 -9 30 -5
0 -8 8 -8 18 0 13 2 14 9 4 7 -11 9 -11 14 2 3 8 2 16 -3 18 -14 5 0 48 16 48
7 0 12 9 11 19 -1 12 -8 19 -19 18 -15 -1 -22 -14 -20 -38 1 -3 -6 -6 -14 -6
-7 0 -14 4 -14 9 0 4 5 8 10 8 6 0 10 7 10 15 0 9 10 20 23 26 20 8 19 9 -6 4
-23 -5 -27 -2 -25 12 2 12 -3 18 -14 17 -11 -1 -18 5 -18 15 0 9 -12 61 -26
116 -14 55 -28 111 -31 125 -3 14 -7 35 -7 47 -1 11 -4 19 -9 16 -12 -7 -2 34
12 51 12 14 12 16 -3 10 -14 -6 -21 5 -17 29 0 4 -4 7 -10 7 -5 0 -8 3 -6 8 3
4 0 18 -6 32 -5 14 -11 30 -13 37 -1 7 -21 67 -43 135 -53 156 -59 177 -65
211 -3 16 -10 34 -15 41 -6 7 -8 23 -5 37 2 13 1 18 -2 10 -5 -9 -11 -4 -20
19 -17 40 -18 61 -2 58 16 -4 23 33 8 42 -7 4 -13 27 -15 51 -1 24 -8 45 -15
47 -9 3 -11 -2 -7 -17 3 -11 1 -21 -3 -21 -5 0 -10 -8 -12 -17 -2 -10 -21 27
-42 82 -40 106 -55 162 -39 152 5 -3 10 11 11 31 2 26 -1 33 -7 23 -5 -8 -7
-20 -4 -28 8 -20 -7 -16 -28 9 -19 21 -27 54 -11 44 4 -2 14 4 20 15 12 18 11
19 -7 10 -25 -14 -34 -14 -26 -1 3 6 1 10 -4 10 -6 0 -11 5 -11 10 0 6 5 9 12
8 7 -2 12 10 13 29 1 18 -2 30 -7 27 -4 -3 -12 5 -17 18 -11 25 -11 25 -16
-14 -2 -18 2 -31 12 -36 14 -8 13 -10 -1 -15 -11 -4 -17 -1 -18 11 0 9 -2 22
-2 28 -1 6 -9 19 -19 28 -20 20 -24 71 -4 60 7 -5 6 -1 -3 10 -13 17 -14 17
-20 0 -5 -14 -8 -15 -12 -3 -3 8 -15 38 -27 67 -26 65 -14 69 16 5 20 -42 22
-44 19 -17 -2 17 -9 41 -15 52 -6 11 -11 29 -11 40 0 11 -7 22 -15 26 -8 3
-15 17 -15 31 0 14 -4 25 -9 25 -5 0 -17 7 -25 16 -15 14 -16 14 -16 0 0 -9 4
-16 9 -16 5 0 13 -10 17 -22 4 -13 9 -25 13 -28 3 -3 12 -15 19 -27 10 -19 10
-23 -3 -23 -8 0 -15 5 -15 11 0 6 -9 23 -19 38 -11 15 -23 40 -26 57 -13 56
-16 64 -26 59 -5 -4 -9 3 -9 14 0 12 -4 21 -8 21 -11 0 -58 91 -54 103 1 5 -2
6 -7 3 -11 -7 -24 22 -15 35 3 5 0 9 -5 9 -6 0 -11 5 -11 11 0 5 5 7 10 4 6
-3 10 3 10 14 0 14 -9 23 -25 27 -14 3 -22 10 -19 15 3 5 -3 9 -13 9 -11 0
-14 3 -7 8 7 4 8 15 3 27 l-8 20 0 -20 c-1 -15 -3 -17 -10 -6 -5 7 -6 23 -4
35 3 13 2 17 -4 9 -6 -9 -12 -7 -21 7 -7 12 -8 20 -2 20 5 0 10 5 10 11 0 5
-4 8 -9 5 -4 -3 -6 7 -4 22 4 24 3 25 -7 9 -11 -18 -13 -18 -27 3 -11 16 -12
24 -3 35 7 8 10 20 7 27 -4 8 -6 7 -6 -4 -1 -20 -16 -24 -26 -8 -3 6 -1 10 4
10 6 0 11 4 11 10 0 5 -7 7 -16 3 -10 -4 -17 1 -21 16 -3 11 -9 21 -14 21 -5
0 -9 9 -9 21 0 13 -4 18 -12 13 -8 -5 -9 -2 -5 9 4 10 1 17 -6 17 -7 0 -24 25
-39 56 -22 45 -24 56 -12 61 10 4 11 9 4 18 -5 6 -7 15 -3 18 3 4 1 7 -5 7 -7
0 -12 -4 -12 -10 0 -5 -4 -10 -10 -10 -5 0 -6 8 -3 17 5 13 2 15 -12 9 -20 -7
-35 8 -35 37 0 14 5 17 19 12 16 -5 18 -2 14 15 -7 25 -10 25 -35 -2 -11 -13
-17 -18 -14 -11 4 6 1 15 -4 18 -7 4 -9 19 -5 35 4 17 2 31 -6 36 -7 4 -10 3
-6 -2 3 -6 1 -16 -4 -24 -8 -13 -10 -13 -18 -1 -5 8 -7 20 -4 27 2 7 -5 15
-17 19 -12 4 -19 12 -17 18 2 7 -10 26 -28 42 -17 17 -41 44 -53 61 l-21 31
22 21 c12 12 16 22 10 22 -6 0 -19 -7 -28 -16 -9 -9 -19 -13 -23 -9 -4 3 0 12
9 18 22 17 0 39 -24 25 -11 -6 -17 -5 -17 1 0 5 5 11 11 13 6 2 1 15 -11 31
-12 16 -25 25 -28 22 -4 -3 0 -10 7 -14 7 -5 11 -15 9 -22 -3 -8 -10 0 -18 18
-8 17 -18 29 -22 27 -4 -3 -8 -1 -8 4 0 5 -9 19 -20 32 -18 21 -25 41 -21 62
0 5 -2 7 -6 7 -21 -3 -33 2 -33 16 0 8 -15 29 -33 47 -41 41 -81 98 -69 98 5
0 21 -13 35 -30 26 -29 47 -39 47 -22 0 18 -60 62 -87 62 -25 1 -26 2 -10 14
17 14 23 27 10 25 -21 -3 -33 2 -33 16 0 8 -6 16 -12 16 -7 1 -19 2 -27 3 -8
0 -16 7 -18 14 -4 9 2 10 23 2 20 -8 30 -8 38 1 8 9 7 10 -7 6 -11 -4 -22 0
-29 13 -7 11 -18 20 -25 20 -12 0 -18 14 -13 35 1 5 -2 7 -6 3 -4 -4 -12 -1
-18 8 -10 13 -12 12 -13 -7 -1 -11 1 -19 4 -15 3 3 13 -3 21 -15 24 -34 5 -33
-27 3 -17 18 -31 36 -31 41 0 10 -15 26 -116 130 -75 78 -98 118 -58 103 18
-7 18 2 -1 20 -8 9 -15 11 -15 6 0 -11 -25 -10 -37 2 -4 4 -1 11 7 16 11 7 9
10 -12 10 -22 0 -26 4 -23 21 4 17 2 19 -11 8 -8 -6 -17 -9 -21 -5 -3 3 -1 6
6 6 7 0 9 5 6 10 -4 6 -11 8 -16 5 -5 -3 -6 0 -4 8 3 7 -5 19 -20 27 -14 7
-25 17 -25 22 0 4 -7 8 -15 8 -11 0 -14 7 -10 28 4 26 2 28 -24 26 -23 -1 -40
10 -90 61 -36 37 -59 68 -56 76 3 8 -6 26 -20 41 -14 15 -25 30 -25 33 0 8
-36 40 -48 42 -23 5 -12 -11 39 -58 28 -26 48 -52 45 -58 -6 -9 -36 19 -112
102 -6 6 -23 20 -37 31 -43 31 -117 103 -117 115 0 6 -4 10 -8 8 -11 -3 -50
26 -120 90 -31 29 -60 53 -64 53 -5 0 -8 4 -8 10 0 13 30 1 54 -22 11 -10 25
-18 30 -17 6 0 5 3 -2 6 -6 2 -10 9 -6 14 3 5 0 9 -6 9 -6 0 -9 4 -6 9 7 10
-48 23 -67 15 -8 -3 -20 2 -27 11 -10 13 -9 15 6 15 16 0 17 2 4 10 -8 5 -19
5 -24 0 -4 -4 -21 7 -38 26 -17 19 -34 31 -39 28 -5 -3 -12 2 -15 10 -3 9 -13
16 -21 16 -8 0 -12 4 -8 9 3 5 -13 20 -34 32 -22 12 -38 26 -36 30 3 4 -6 10
-20 13 -14 4 -25 11 -25 16 0 5 8 7 18 4 13 -5 14 -4 3 4 -8 6 -20 8 -27 5 -8
-3 -20 1 -28 9 -22 19 -37 31 -73 56 -28 20 -31 26 -23 43 9 16 7 19 -12 18
-13 0 -17 -3 -10 -6 14 -6 16 -23 2 -23 -5 0 -27 15 -47 33 -21 19 -61 50 -90
69 -29 20 -49 39 -45 42 3 4 -1 4 -11 0 -9 -3 -17 -1 -17 4 0 6 -9 14 -20 17
-11 3 -20 13 -20 21 0 8 -4 13 -9 9 -5 -3 -16 2 -24 10 -9 8 -21 15 -28 15 -7
0 -25 14 -40 31 -16 18 -32 28 -39 24 -7 -4 -15 -3 -19 2 -3 5 -28 23 -56 41
-27 17 -54 35 -60 39 -18 14 -63 42 -112 70 -26 14 -54 32 -61 40 -7 7 -18 13
-23 13 -5 0 -9 7 -9 16 0 8 -4 13 -9 10 -10 -6 -62 10 -71 22 -4 6 -33 22
-121 67 -10 5 -19 15 -19 22 0 7 -7 10 -15 7 -8 -4 -15 -2 -15 4 0 9 -28 22
-55 26 -26 5 -111 49 -128 67 -10 11 -22 17 -28 14 -5 -4 -9 -1 -9 4 0 6 -4
10 -8 8 -10 -3 -151 66 -151 74 -1 3 11 5 27 3 17 -2 19 -1 7 3 -11 3 -27 13
-35 23 -8 9 -23 16 -33 14 -10 -1 -21 4 -24 12 -3 9 -13 12 -23 9 -10 -3 -25
2 -35 11 -14 14 -21 15 -36 6 -23 -15 -39 -16 -19 -1 12 9 11 10 -7 6 -19 -4
-23 -1 -24 21 -2 24 -2 24 -6 5 -4 -23 -23 -33 -23 -12 0 5 -4 7 -10 4 -11 -7
-41 7 -64 31 -9 8 -16 11 -16 6 0 -12 -102 25 -111 40 -3 5 -9 9 -13 9 -20 -3
-26 0 -21 9 3 5 0 7 -9 4 -8 -3 -36 4 -63 16 -26 12 -57 23 -68 26 -11 2 -21
8 -23 14 -2 6 -7 8 -11 6 -4 -3 -38 7 -77 20 -38 14 -78 28 -89 31 -25 6 -61
20 -98 39 -15 7 -26 10 -23 5 3 -4 -10 -3 -29 3 -19 6 -35 14 -35 18 0 4 -7 4
-17 1 -10 -4 -14 -2 -10 4 5 7 0 9 -13 6 -11 -3 -26 0 -34 6 -8 7 -25 14 -38
16 -47 9 -64 14 -120 34 -32 12 -66 21 -76 21 -9 0 -69 14 -132 30 -63 17
-123 33 -133 35 -9 2 -21 6 -26 9 -5 3 -26 8 -47 12 -22 3 -56 10 -78 15 -21
6 -57 12 -80 15 -22 3 -48 7 -56 11 -16 6 -26 9 -47 11 -7 1 -12 7 -10 13 1 6
-4 13 -11 15 -7 1 -8 0 -2 -3 19 -9 -1 -22 -23 -14 -12 5 -56 11 -97 15 -77 7
-206 24 -249 32 -20 4 -22 7 -10 15 9 5 9 9 2 9 -6 0 -15 -4 -18 -10 -8 -14
-55 -13 -55 1 0 6 -7 8 -16 5 -8 -3 -25 -1 -36 5 -16 9 -19 8 -13 -2 6 -9 3
-10 -11 -4 -10 4 -28 8 -39 9 -11 1 -25 4 -31 8 -6 4 -25 5 -42 3 -17 -2 -35
1 -38 7 -4 6 -3 8 4 5 12 -8 42 1 42 13 0 9 -127 5 -151 -4 -18 -8 -117 -2
-126 8 -7 7 7 9 60 6 27 -1 37 3 37 13 0 8 -7 18 -16 21 -8 3 -13 2 -10 -2 3
-4 -14 -7 -37 -6 -59 3 -59 3 -51 17 4 6 -2 4 -13 -6 -21 -18 -22 -18 -33 3
-11 20 -10 21 12 15 18 -6 21 -5 11 5 -6 7 -18 10 -26 7 -17 -6 -20 -57 -3
-58 24 -1 48 -8 54 -14 4 -4 -13 -4 -38 -2 -25 3 -49 6 -55 6 -5 1 -4 5 4 10
15 10 7 31 -12 31 -7 0 -6 -4 3 -11 11 -8 5 -9 -24 -4 -34 6 -38 5 -28 -8 10
-12 9 -16 -3 -21 -9 -3 -14 -2 -11 3 3 5 -23 7 -58 6 -50 -3 -66 0 -70 11 -3
9 -1 12 4 9 6 -3 10 -1 10 6 0 8 5 7 17 -2 11 -10 14 -10 9 -1 -4 7 -2 12 6
12 7 0 4 6 -6 12 -15 8 -21 8 -24 0 -2 -7 -8 -12 -13 -12 -6 0 -8 4 -5 9 3 5
-8 11 -24 13 -17 3 -30 3 -30 1z m-2465 -73 c3 -5 1 -10 -4 -10 -6 0 -11 5
-11 10 0 6 2 10 4 10 3 0 8 -4 11 -10z m-42 -20 c-20 -23 -20 -23 -29 -8 -4 6
-3 8 3 5 6 -4 13 0 17 8 3 8 10 15 16 15 5 0 2 -9 -7 -20z m-56 -6 c-3 -3 -12
-4 -19 -1 -8 3 -5 6 6 6 11 1 17 -2 13 -5z m23 -24 c0 -5 -5 -10 -11 -10 -7 0
-9 -9 -5 -24 4 -17 1 -26 -10 -30 -25 -10 -30 -6 -11 8 16 12 16 15 2 29 -19
20 -19 28 0 21 8 -4 15 -1 15 5 0 6 5 11 10 11 6 0 10 -4 10 -10z m20 -40 c0
-11 -4 -20 -8 -20 -4 0 -8 9 -8 20 0 11 4 20 8 20 4 0 8 -9 8 -20z m-194 1
c-4 -5 0 -12 6 -14 8 -3 6 -6 -4 -6 -18 -1 -24 10 -11 22 9 10 15 8 9 -2z m34
-61 c0 -5 -4 -10 -10 -10 -5 0 -10 5 -10 10 0 6 5 10 10 10 6 0 10 -4 10 -10z
m-255 -21 c-5 -13 -3 -19 3 -15 5 3 13 -2 17 -12 13 -29 14 -42 2 -42 -5 0 -7
-3 -4 -6 4 -4 13 -2 21 5 11 9 15 8 20 -4 3 -9 1 -15 -7 -14 -33 4 -68 -2 -62
-11 4 -6 11 -8 16 -5 5 4 9 -1 9 -9 0 -9 8 -16 18 -15 10 0 12 3 5 6 -20 7
-15 19 7 20 24 2 26 -10 5 -31 -8 -8 -15 -17 -15 -19 0 -11 54 -17 63 -8 6 6
15 11 21 11 5 0 1 -7 -10 -15 -18 -13 -18 -14 -1 -15 10 0 15 -4 12 -10 -3 -6
4 -10 16 -10 25 0 18 -12 -9 -16 -9 -1 -29 -5 -44 -8 -16 -4 -28 -2 -28 4 0
10 14 14 39 11 20 -3 7 23 -14 27 -12 3 -15 0 -10 -9 6 -9 3 -11 -9 -6 -10 4
-21 7 -24 7 -4 0 0 5 8 11 11 7 5 8 -23 4 -32 -4 -36 -3 -25 9 9 10 15 11 20
2 4 -6 8 -7 8 -3 0 5 -10 23 -22 40 -13 18 -23 37 -23 42 -1 6 -7 9 -15 7 -12
-3 -12 -1 -3 9 10 10 15 9 28 -1 8 -7 15 -9 16 -4 0 5 2 17 4 26 2 9 -3 19
-11 22 -12 5 -12 2 -3 -15 9 -17 8 -20 -3 -17 -15 5 -18 48 -3 65 15 18 17 16
10 -8z m-85 -18 c0 -23 29 -51 31 -30 1 8 1 20 0 28 -2 7 2 10 8 6 16 -9 14
-23 -9 -55 -14 -20 -18 -37 -14 -59 4 -20 2 -31 -5 -31 -6 0 -11 -7 -11 -15 0
-8 -4 -15 -10 -15 -13 0 -13 2 5 36 8 16 10 31 5 34 -5 3 -7 16 -3 28 3 12 9
19 14 16 5 -3 9 -1 9 5 0 5 -6 14 -13 18 -16 9 -29 53 -16 53 5 0 9 -8 9 -19z
m150 -1 c0 -5 -4 -10 -9 -10 -6 0 -13 5 -16 10 -3 6 1 10 9 10 9 0 16 -4 16
-10z m-230 -19 c0 -6 -4 -13 -10 -16 -5 -3 -10 1 -10 9 0 9 5 16 10 16 6 0 10
-4 10 -9z m946 0 c-8 -12 -52 -20 -66 -11 -6 4 3 7 20 8 18 0 35 3 38 6 8 9
14 7 8 -3z m-709 -7 c-3 -3 -12 -4 -19 -1 -8 3 -5 6 6 6 11 1 17 -2 13 -5z
m73 2 c0 -3 -4 -8 -10 -11 -5 -3 -10 -1 -10 4 0 6 5 11 10 11 6 0 10 -2 10 -4z
m-280 -31 c0 -8 -2 -15 -4 -15 -2 0 -13 -3 -23 -6 -17 -5 -17 -5 0 6 9 6 15
15 12 21 -4 5 -1 9 4 9 6 0 11 -7 11 -15z m31 -14 c-10 -6 -10 -13 -2 -29 8
-15 7 -23 -4 -32 -9 -7 -18 -10 -22 -6 -3 3 -1 6 5 6 7 0 9 13 5 35 -5 30 -3
35 13 35 15 0 16 -2 5 -9z m669 0 c0 -5 -7 -12 -16 -15 -14 -5 -15 -4 -4 9 14
17 20 19 20 6z m-599 -8 c0 -5 2 -17 4 -28 4 -20 4 -20 -11 -1 -8 11 -14 23
-14 28 0 10 20 11 21 1z m459 -11 c0 -5 -12 -14 -27 -21 -20 -9 -29 -9 -37 0
-8 9 -8 10 1 5 6 -3 18 0 25 8 14 17 38 21 38 8z m97 2 c-3 -3 -12 -4 -19 -1
-8 3 -5 6 6 6 11 1 17 -2 13 -5z m-676 -30 c2 3 9 -6 16 -20 9 -19 8 -24 -3
-24 -8 0 -14 6 -14 14 0 7 -7 19 -15 26 -8 7 -15 18 -15 24 0 6 7 3 14 -6 7
-10 15 -16 17 -14z m639 16 c0 -5 -7 -10 -16 -10 -8 0 -12 5 -9 10 3 6 10 10
16 10 5 0 9 -4 9 -10z m-700 -4 c0 -2 -7 -7 -16 -10 -8 -3 -12 -2 -9 4 6 10
25 14 25 6z m660 -6 c0 -5 -3 -10 -7 -11 -5 0 -17 -2 -28 -4 -20 -4 -20 -4 -1
11 23 16 36 18 36 4z m-784 -22 c5 -7 3 -8 -6 -3 -9 5 -10 2 -5 -14 3 -11 3
-21 -2 -21 -5 0 -10 11 -11 25 -2 26 12 34 24 13z m64 2 c0 -5 -2 -10 -4 -10
-3 0 -8 5 -11 10 -3 6 -1 10 4 10 6 0 11 -4 11 -10z m-173 -32 c-3 -7 -5 -2
-5 12 0 14 2 19 5 13 2 -7 2 -19 0 -25z m213 28 c0 -2 -7 -7 -16 -10 -8 -3
-12 -2 -9 4 6 10 25 14 25 6z m38 -21 c0 -15 -8 -30 -19 -36 -24 -13 -24 -26
1 -39 17 -9 19 -8 13 7 -6 16 -4 16 17 -2 13 -11 20 -14 16 -7 -4 7 -1 12 8
12 20 0 20 -9 0 -31 -13 -15 -19 -15 -41 -4 -34 18 -58 54 -45 67 6 6 8 17 5
26 -4 10 -2 13 8 10 8 -3 13 -11 12 -17 -2 -6 2 -11 7 -11 6 0 10 4 10 9 0 6
-4 13 -10 16 -15 9 -12 25 4 25 8 0 14 -11 14 -25z m172 0 c0 -8 -9 -19 -20
-25 -11 -6 -20 -7 -20 -1 0 5 7 12 16 15 9 4 14 13 10 22 -3 8 -2 12 4 9 6 -3
10 -13 10 -20z m201 8 c-11 -5 -11 -7 0 -14 11 -7 10 -9 -3 -9 -10 0 -18 7
-18 15 0 8 8 15 18 14 12 0 13 -2 3 -6z m-484 -18 c0 -8 -4 -12 -9 -9 -5 3 -6
10 -3 15 9 13 12 11 12 -6z m36 -14 c3 -13 1 -18 -9 -14 -7 2 -10 11 -7 19 7
19 10 18 16 -5z m117 5 c0 -2 -7 -7 -16 -10 -8 -3 -12 -2 -9 4 6 10 25 14 25
6z m196 -6 c9 0 12 -5 9 -10 -4 -7 -13 -7 -25 0 -15 8 -18 7 -14 -3 5 -15 -35
-37 -67 -37 -11 0 -17 -4 -14 -10 3 -5 1 -10 -4 -10 -22 0 -9 20 32 49 23 17
48 28 55 26 8 -3 20 -5 28 -5z m-411 -21 c-4 -5 -12 -9 -18 -8 -9 0 -8 2 1 6
6 2 9 10 6 15 -4 7 -2 8 5 4 6 -4 9 -12 6 -17z m35 11 c0 -5 -2 -10 -4 -10 -3
0 -8 5 -11 10 -3 6 -1 10 4 10 6 0 11 -4 11 -10z m197 -5 c0 -8 -4 -15 -9 -15
-10 0 -11 14 -1 23 9 10 10 9 10 -8z m63 5 c0 -5 -7 -10 -16 -10 -8 0 -12 5
-9 10 3 6 10 10 16 10 5 0 9 -4 9 -10z m-530 -14 c0 -3 -4 -8 -10 -11 -5 -3
-10 -1 -10 4 0 6 5 11 10 11 6 0 10 -2 10 -4z m260 -10 c0 -3 -4 -8 -10 -11
-5 -3 -10 -1 -10 4 0 6 5 11 10 11 6 0 10 -2 10 -4z m237 -14 c-14 -3 -16 -7
-6 -18 7 -9 8 -14 1 -14 -18 0 -24 20 -12 35 7 8 17 12 24 8 7 -5 5 -9 -7 -11z
m168 -2 c3 -5 -1 -10 -10 -10 -9 0 -13 5 -10 10 3 6 8 10 10 10 2 0 7 -4 10
-10z m-540 -32 c6 -4 2 -8 -7 -8 -10 0 -18 7 -18 17 0 9 3 12 8 7 4 -5 12 -12
17 -16z m161 5 c17 -22 18 -43 2 -43 -6 0 -8 3 -5 7 4 3 0 17 -8 30 -18 27 -9
31 11 6z m324 2 c0 -10 -9 -15 -27 -14 -24 2 -25 2 -5 6 12 2 20 9 17 14 -4 5
-1 9 4 9 6 0 11 -7 11 -15z m-774 -52 c-3 -4 -6 -1 -6 6 0 7 -4 9 -10 6 -6 -3
-10 4 -10 17 l0 22 16 -22 c9 -13 13 -26 10 -29z m574 37 c0 -5 -2 -10 -4 -10
-3 0 -8 5 -11 10 -3 6 -1 10 4 10 6 0 11 -4 11 -10z m-230 -10 c0 -5 -2 -10
-4 -10 -3 0 -8 5 -11 10 -3 6 -1 10 4 10 6 0 11 -4 11 -10z m267 -5 c0 -8 -4
-12 -9 -9 -5 3 -6 10 -3 15 9 13 12 11 12 -6z m-547 -5 c0 -5 -2 -10 -4 -10
-3 0 -8 5 -11 10 -3 6 -1 10 4 10 6 0 11 -4 11 -10z m36 1 c-3 -5 1 -15 10
-22 14 -12 14 -14 -3 -20 -29 -12 -51 -9 -23 3 15 6 20 12 13 15 -16 6 -17 33
-2 33 5 0 8 -4 5 -9z m194 -5 c0 -8 -8 -13 -17 -11 -10 2 -20 4 -23 4 -7 2 23
21 33 21 4 0 7 -6 7 -14z m207 -1 c0 -8 -4 -12 -9 -9 -4 3 -8 9 -8 15 0 5 4 9
8 9 5 0 9 -7 9 -15z m-261 -4 c-4 -5 0 -11 6 -14 7 -2 11 -7 8 -10 -9 -10 -33
10 -26 22 4 6 9 11 12 11 3 0 3 -4 0 -9z m84 -5 c0 -3 -4 -8 -10 -11 -5 -3
-10 -1 -10 4 0 6 5 11 10 11 6 0 10 -2 10 -4z m45 -6 c3 -6 -1 -7 -9 -4 -18 7
-21 14 -7 14 6 0 13 -4 16 -10z m62 4 c-3 -3 -12 -4 -19 -1 -8 3 -5 6 6 6 11
1 17 -2 13 -5z m163 -15 c0 -5 -4 -7 -10 -4 -5 3 -10 2 -10 -3 0 -5 -12 -7
-27 -4 l-28 6 25 7 c37 11 50 10 50 -2z m-155 -9 c4 -6 -7 -10 -27 -9 -31 1
-32 1 -8 9 14 4 26 8 27 9 1 1 5 -3 8 -9z m-195 -25 c0 -8 -7 -15 -15 -15 -16
0 -20 12 -8 23 11 12 23 8 23 -8z m55 5 c-3 -5 -12 -7 -20 -3 -21 7 -19 13 6
13 11 0 18 -4 14 -10z m179 -5 c-4 -8 -13 -15 -21 -15 -8 0 -27 -7 -43 -15
-17 -9 -30 -13 -30 -10 0 4 41 27 97 54 1 1 0 -6 -3 -14z m46 11 c0 -3 -4 -8
-10 -11 -5 -3 -10 -1 -10 4 0 6 5 11 10 11 6 0 10 -2 10 -4z m-471 -45 c-2 -6
-10 2 -17 17 -11 25 -11 25 4 10 9 -9 15 -21 13 -27z m251 8 c0 -5 5 -9 11 -9
6 0 9 7 5 15 -3 9 0 15 9 15 25 0 17 -26 -11 -39 -30 -13 -29 -14 -38 16 -6
18 -4 22 8 17 9 -3 16 -10 16 -15z m-208 -7 c-22 -7 -14 -35 8 -29 11 3 20 1
20 -4 0 -5 -6 -9 -12 -9 -9 0 -8 -3 2 -10 9 -6 17 -5 22 3 5 8 8 6 8 -6 0 -10
4 -16 8 -13 5 3 9 -1 9 -9 0 -8 -4 -15 -9 -15 -4 0 -8 4 -8 9 0 5 -8 11 -18
13 -15 4 -18 1 -14 -18 4 -20 0 -24 -22 -24 -14 0 -26 -5 -26 -11 0 -8 -4 -8
-14 0 -16 14 -46 4 -46 -14 0 -7 6 -15 13 -18 6 -2 9 -8 4 -12 -11 -12 -27 7
-33 38 -3 21 0 28 19 32 12 4 36 4 51 1 16 -3 26 -2 22 1 -3 3 -1 12 6 20 6 7
8 16 4 20 -3 3 -6 1 -6 -6 0 -7 -5 -9 -12 -5 -6 4 -8 3 -4 -4 4 -7 -3 -9 -21
-7 -16 2 -37 4 -48 4 -16 1 -17 3 -5 11 8 5 12 12 8 15 -3 3 -13 -1 -21 -10
-9 -8 -22 -15 -29 -14 -10 0 -10 2 0 6 6 2 9 10 6 15 -4 7 -2 8 4 4 7 -4 12 0
13 11 0 10 3 13 5 7 3 -7 15 -9 26 -6 17 4 20 2 15 -11 -7 -19 1 -21 23 -7 12
8 12 10 1 10 -8 0 -11 3 -8 6 4 4 14 1 23 -7 16 -13 17 -12 11 10 -6 25 12 53
28 43 5 -3 4 -7 -3 -10z m-337 -2 c3 -5 1 -10 -4 -10 -6 0 -11 5 -11 10 0 6 2
10 4 10 3 0 8 -4 11 -10z m425 -6 c0 -8 -4 -12 -10 -9 -5 3 -10 10 -10 16 0 5
5 9 10 9 6 0 10 -7 10 -16z m80 6 c0 -5 -2 -10 -4 -10 -3 0 -8 5 -11 10 -3 6
-1 10 4 10 6 0 11 -4 11 -10z m-230 -10 c0 -5 -7 -10 -15 -10 -8 0 -15 5 -15
10 0 6 7 10 15 10 8 0 15 -4 15 -10z m330 0 c0 -5 -4 -10 -10 -10 -5 0 -10 5
-10 10 0 6 5 10 10 10 6 0 10 -4 10 -10z m-136 -8 c3 -5 -1 -9 -9 -9 -8 0 -12
4 -9 9 3 4 7 8 9 8 2 0 6 -4 9 -8z m36 -6 c0 -3 -4 -8 -10 -11 -5 -3 -10 -1
-10 4 0 6 5 11 10 11 6 0 10 -2 10 -4z m-383 -21 c0 -8 -5 -15 -11 -16 -6 0
-2 -4 9 -9 15 -6 16 -9 4 -9 -23 -1 -30 9 -18 30 12 23 16 24 16 4z m413 -14
c0 -9 -24 -21 -42 -21 -6 0 -6 6 2 15 14 16 40 20 40 6z m-450 -5 c0 -3 -4 -8
-10 -11 -5 -3 -10 -1 -10 4 0 6 5 11 10 11 6 0 10 -2 10 -4z m6973 -40 c15 -4
27 -11 27 -17 0 -6 4 -8 8 -5 11 7 38 -11 30 -20 -4 -4 -18 0 -30 8 -13 8 -39
20 -60 27 -20 7 -39 19 -42 27 -5 12 -2 12 17 0 12 -7 34 -16 50 -20z m-6948
6 c-3 -3 -11 0 -18 7 -9 10 -8 11 6 5 10 -3 15 -9 12 -12z m110 7 c-7 -11 -35
-12 -35 -1 0 4 9 8 20 9 11 1 18 -2 15 -8z m255 1 c0 -5 -8 -10 -17 -10 -15 0
-16 2 -3 10 19 12 20 12 20 0z m-47 -21 c-6 -6 -17 -11 -24 -12 -8 -2 -20 -6
-26 -10 -8 -5 -13 -4 -13 2 0 6 3 11 8 12 30 3 47 10 50 19 2 6 7 9 10 5 3 -3
1 -10 -5 -16z m-276 5 c-3 -3 -12 -4 -19 -1 -8 3 -5 6 6 6 11 1 17 -2 13 -5z
m33 -15 c0 -6 7 -9 15 -5 8 3 15 1 15 -4 0 -6 -7 -10 -15 -10 -8 0 -15 -4 -15
-10 0 -5 7 -7 16 -3 11 4 15 2 13 -6 -3 -7 -8 -12 -12 -12 -4 1 -13 1 -21 1
-8 0 -13 11 -12 30 1 27 16 45 16 19z m-323 -15 c-3 -3 -12 -4 -19 -1 -8 3 -5
6 6 6 11 1 17 -2 13 -5z m446 -17 c3 -8 -3 -14 -15 -14 -16 -2 -17 1 -8 13 15
17 17 17 23 1z m-163 -12 c11 -13 10 -14 -4 -9 -9 3 -16 10 -16 15 0 13 6 11
20 -6z m94 -25 c-10 -4 -21 -6 -24 -3 -8 7 24 22 34 16 5 -4 1 -10 -10 -13z
m-274 -14 c0 -3 -4 -8 -10 -11 -5 -3 -10 -1 -10 4 0 6 5 11 10 11 6 0 10 -2
10 -4z m220 -11 c-1 -6 -10 -13 -21 -17 -12 -5 -18 -4 -14 2 3 6 14 10 23 10
15 0 15 2 2 11 -10 7 -11 9 -2 7 8 -2 13 -8 12 -13z m-165 -24 c-6 -5 -25 10
-25 20 0 5 6 4 14 -3 8 -7 12 -15 11 -17z m-310 -1 c3 -6 -1 -7 -9 -4 -18 7
-21 14 -7 14 6 0 13 -4 16 -10z m60 -18 c-3 -3 -11 0 -18 7 -9 10 -8 11 6 5
10 -3 15 -9 12 -12z m215 14 c0 -3 -4 -8 -10 -11 -5 -3 -10 -1 -10 4 0 6 5 11
10 11 6 0 10 -2 10 -4z m-446 -22 c3 -8 2 -12 -4 -9 -6 3 -10 10 -10 16 0 14
7 11 14 -7z m69 1 c4 -8 3 -16 -1 -19 -4 -3 -9 4 -9 15 -2 23 3 25 10 4z m81
6 c3 -5 -1 -14 -8 -20 -12 -10 -14 -9 -11 6 2 10 4 19 4 21 2 5 10 2 15 -7z
m366 -1 c0 -5 -2 -10 -4 -10 -3 0 -8 5 -11 10 -3 6 -1 10 4 10 6 0 11 -4 11
-10z m-50 -28 c-6 -2 -7 -9 -4 -15 5 -9 4 -9 -5 -1 -6 6 -9 19 -5 28 5 14 9
15 15 4 5 -7 4 -14 -1 -16z m-63 12 c-3 -3 -12 -4 -19 -1 -8 3 -5 6 6 6 11 1
17 -2 13 -5z m-57 -14 c0 -5 -7 -10 -15 -10 -8 0 -15 5 -15 10 0 6 7 10 15 10
8 0 15 -4 15 -10z m73 -13 c-7 -13 -10 -13 -23 1 -13 14 -12 15 3 9 10 -4 17
-2 17 5 0 6 3 9 6 5 3 -3 2 -12 -3 -20z m-448 4 c3 -5 2 -12 -3 -15 -5 -3 -9
1 -9 9 0 17 3 19 12 6z m55 -1 c0 -5 -2 -10 -4 -10 -3 0 -8 5 -11 10 -3 6 -1
10 4 10 6 0 11 -4 11 -10z m225 0 c3 -5 1 -10 -4 -10 -6 0 -11 5 -11 10 0 6 2
10 4 10 3 0 8 -4 11 -10z m125 6 c0 -10 -48 -56 -59 -56 -6 0 -11 9 -11 21 0
15 5 19 15 15 8 -3 21 1 27 9 13 14 28 20 28 11z m-230 -16 c0 -5 -5 -10 -11
-10 -5 0 -7 5 -4 10 3 6 8 10 11 10 2 0 4 -4 4 -10z m-292 -45 c-3 -3 -9 2
-12 12 -6 14 -5 15 5 6 7 -7 10 -15 7 -18z m376 17 c2 -4 -4 -9 -15 -9 -11 -1
-17 2 -14 8 7 11 22 12 29 1z m-294 -32 c0 -5 -4 -10 -10 -10 -5 0 -10 5 -10
10 0 6 5 10 10 10 6 0 10 -4 10 -10z m194 -5 c3 -8 1 -15 -3 -15 -5 0 -11 7
-15 15 -3 8 -1 15 3 15 5 0 11 -7 15 -15z m224 0 c-17 -14 -48 -24 -48 -15 0
5 7 10 15 10 8 0 15 5 15 11 0 5 5 7 11 4 6 -4 9 -8 7 -10z m-528 -5 c0 -5 -2
-10 -4 -10 -3 0 -8 5 -11 10 -3 6 -1 10 4 10 6 0 11 -4 11 -10z m410 0 c0 -5
-4 -10 -10 -10 -5 0 -10 5 -10 10 0 6 5 10 10 10 6 0 10 -4 10 -10z m-60 -10
c0 -5 11 -10 24 -10 13 0 26 -5 28 -11 3 -9 10 -9 26 0 12 6 22 8 22 3 0 -6
-8 -12 -17 -15 -10 -2 -26 -8 -36 -12 -14 -6 -16 -4 -11 11 4 11 3 16 -1 11
-5 -4 -19 0 -32 8 -20 13 -23 13 -23 1 0 -8 6 -16 12 -18 8 -3 4 -9 -10 -17
-15 -8 -28 -9 -40 -2 -15 9 -14 11 8 11 23 1 23 2 5 9 -11 5 -21 4 -23 0 -6
-16 -20 -9 -25 12 -4 14 -2 18 6 11 15 -12 50 -7 55 7 5 14 32 14 32 1z m-140
-46 c0 -3 -7 -1 -15 6 -8 7 -15 17 -15 22 0 5 7 3 15 -6 8 -8 15 -18 15 -22z
m35 6 c-3 -5 -12 -10 -18 -10 -7 0 -6 4 3 10 19 12 23 12 15 0z m40 -21 c9
-13 -36 -79 -48 -72 -5 3 -2 10 7 15 9 5 16 22 16 38 0 30 13 40 25 19z m-65
-33 c0 -21 -15 -35 -29 -27 -10 6 -10 10 -2 16 9 5 9 10 1 20 -9 11 -7 12 9 8
12 -3 21 -10 21 -17z m30 4 c0 -5 -5 -10 -11 -10 -5 0 -7 5 -4 10 3 6 8 10 11
10 2 0 4 -4 4 -10z m80 2 c0 -4 -9 -8 -20 -9 -11 -1 -18 2 -15 8 7 11 35 12
35 1z m-310 -62 c8 -5 11 -10 5 -10 -5 0 -17 5 -25 10 -8 5 -10 10 -5 10 6 0
17 -5 25 -10z m60 6 c0 -2 -7 -9 -15 -16 -12 -10 -15 -10 -15 4 0 9 7 16 15
16 8 0 15 -2 15 -4z m45 -6 c3 -5 1 -10 -4 -10 -6 0 -11 5 -11 10 0 6 2 10 4
10 3 0 8 -4 11 -10z m-28 -25 c0 -19 -20 -26 -38 -13 -11 8 -10 9 5 4 13 -5
17 -2 12 9 -3 9 0 15 8 15 7 0 13 -7 13 -15z m103 1 c0 -3 -4 -8 -10 -11 -5
-3 -10 -1 -10 4 0 6 5 11 10 11 6 0 10 -2 10 -4z m-90 -50 c0 -2 -7 -6 -15
-10 -8 -3 -15 -1 -15 4 0 6 7 10 15 10 8 0 15 -2 15 -4z m-280 -86 c0 -10 -37
-20 -44 -12 -15 15 -4 29 19 24 14 -2 25 -8 25 -12z m64 -5 c-3 -7 -13 -16
-21 -19 -13 -5 -14 -4 -3 9 10 12 10 15 -1 15 -11 0 -11 2 1 9 18 12 31 5 24
-14z m-117 -52 c-12 -11 -37 6 -31 22 3 8 1 15 -6 15 -6 0 -8 5 -5 10 4 6 15
0 27 -15 11 -14 18 -29 15 -32z m48 -3 c4 -6 -1 -7 -11 -3 -14 5 -16 3 -10
-13 5 -14 4 -16 -5 -7 -12 12 -5 33 11 33 5 0 12 -4 15 -10z m-168 -92 c2 -18
0 -20 -7 -8 -12 18 -13 30 -2 30 4 0 9 -10 9 -22z m-34 0 c-4 -7 -7 -22 -8
-33 0 -12 -8 -21 -20 -23 l-20 -4 20 16 20 15 -20 1 c-19 1 -19 2 4 20 27 23
36 25 24 8z m-78 -148 c-3 -5 -16 -15 -28 -21 -21 -10 -21 -9 2 10 25 23 36
27 26 11z m-230 -55 c0 -10 -5 -20 -11 -22 -13 -4 -27 24 -18 38 9 15 29 4 29
-16z m-153 -94 c8 11 9 11 6 1 -4 -16 -22 -18 -24 -3 -2 8 -1 7 3 0 4 -8 8 -7
15 2z m41 -28 c-7 -2 -19 -2 -25 0 -7 3 -2 5 12 5 14 0 19 -2 13 -5z m-119
-126 c-2 -7 -13 -18 -23 -24 -16 -10 -18 -9 -14 7 3 11 9 17 14 14 5 -3 9 0 9
5 0 6 4 11 10 11 5 0 7 -6 4 -13z m-64 -32 c0 -16 -9 -19 -35 -9 -13 5 -14 8
-3 15 20 13 38 11 38 -6z m37 -38 c1 -11 1 -18 0 -16 -2 2 -8 11 -15 20 -9 12
-9 16 1 16 7 0 14 -9 14 -20z m-33 -12 c6 -18 -29 -41 -39 -25 -10 16 2 40 19
40 7 0 16 -7 20 -15z m-130 -94 c-5 -6 -34 20 -34 30 0 5 8 1 18 -8 10 -10 17
-20 16 -22z m35 6 c8 -10 7 -14 -4 -14 -8 0 -15 6 -15 14 0 7 2 13 4 13 2 0 9
-6 15 -13z m-49 -23 c0 -2 -7 -4 -15 -4 -8 0 -15 4 -15 10 0 5 7 7 15 4 8 -4
15 -8 15 -10z m-195 -114 c3 -5 1 -10 -4 -10 -6 0 -11 5 -11 10 0 6 2 10 4 10
3 0 8 -4 11 -10z m-85 -169 c0 -5 -7 -11 -14 -14 -10 -4 -13 -1 -9 9 6 15 23
19 23 5z m11595 -101 c3 -6 -1 -7 -9 -4 -18 7 -21 14 -7 14 6 0 13 -4 16 -10z
m-11800 -20 c3 -5 1 -10 -4 -10 -6 0 -11 5 -11 10 0 6 2 10 4 10 3 0 8 -4 11
-10z m-135 -170 c0 -5 -4 -10 -10 -10 -5 0 -10 5 -10 10 0 6 5 10 10 10 6 0
10 -4 10 -10z m25 0 c3 -5 1 -10 -4 -10 -6 0 -11 5 -11 10 0 6 2 10 4 10 3 0
8 -4 11 -10z m12415 -370 c0 -5 -5 -10 -11 -10 -5 0 -7 5 -4 10 3 6 8 10 11
10 2 0 4 -4 4 -10z m-12760 -26 c0 -8 -4 -12 -10 -9 -5 3 -10 13 -10 21 0 8 5
12 10 9 6 -3 10 -13 10 -21z m-146 -206 c-3 -4 -9 -8 -15 -8 -5 0 -9 4 -9 8 0
5 7 9 15 9 8 0 12 -4 9 -9z m-304 -292 c0 -3 -4 -8 -10 -11 -5 -3 -10 -1 -10
4 0 6 5 11 10 11 6 0 10 -2 10 -4z m5445 -326 c376 -24 716 -77 895 -140 14
-5 77 -23 140 -40 309 -86 713 -278 1035 -493 180 -120 479 -374 605 -512 25
-27 62 -67 83 -88 l39 -38 -505 -506 -505 -507 -149 150 c-160 161 -289 269
-423 355 -365 236 -709 359 -1159 415 -381 47 -881 -28 -1261 -188 -314 -133
-547 -291 -790 -537 -218 -220 -353 -406 -490 -676 -191 -376 -290 -731 -330
-1192 -25 -288 -24 -413 11 -758 57 -566 274 -1125 601 -1545 153 -197 348
-384 537 -517 282 -198 599 -335 921 -397 232 -45 281 -50 510 -50 326 -1 525
29 805 120 410 134 700 317 1015 638 46 48 90 85 96 84 12 -3 865 -838 908
-888 11 -14 43 -47 69 -75 l49 -50 -94 -90 c-248 -241 -494 -433 -747 -585
-95 -57 -430 -230 -446 -230 -3 0 -32 -12 -63 -26 -80 -37 -303 -118 -392
-142 -353 -98 -588 -139 -930 -163 -154 -10 -486 -8 -585 5 -16 2 -64 7 -105
11 -268 25 -537 80 -850 173 -236 71 -618 253 -860 411 -47 30 -92 60 -101 66
-291 184 -648 521 -892 840 -42 55 -80 105 -84 110 -5 6 -39 57 -77 115 -37
58 -81 124 -97 148 -16 23 -29 47 -29 53 0 5 -16 32 -35 61 -62 89 -305 609
-305 652 0 6 -4 16 -9 22 -22 22 -115 339 -175 594 -180 764 -157 1668 63
2440 198 696 558 1316 1046 1806 297 297 596 520 955 712 296 158 714 311
1019 372 367 74 744 101 1086 80z m6745 -4320 l0 -4250 -722 2 -723 3 0 2977
c0 1637 -2 2979 -5 2981 -5 5 -209 -264 -390 -513 -38 -52 -90 -122 -115 -155
-40 -54 -104 -140 -458 -620 -57 -77 -177 -239 -267 -360 -90 -121 -186 -251
-215 -290 -132 -179 -255 -345 -296 -399 -24 -32 -69 -93 -99 -135 -80 -113
-119 -165 -171 -229 -25 -31 -61 -79 -80 -107 -19 -27 -46 -66 -61 -85 -26
-33 -186 -247 -325 -432 l-66 -88 -293 0 -293 0 -45 53 c-24 28 -82 98 -128
154 -46 56 -128 154 -183 218 -55 64 -125 148 -155 186 -128 160 -287 352
-520 629 -49 58 -135 162 -192 231 -56 69 -148 179 -203 245 -109 129 -121
144 -239 291 -44 54 -118 143 -165 199 -47 55 -124 146 -170 202 -46 57 -86
101 -88 98 -3 -2 -4 -756 -3 -1675 1 -1597 0 -1672 -17 -1679 -10 -4 -137 -7
-283 -7 -281 1 -381 12 -565 67 -193 57 -504 196 -562 250 l-23 21 0 2209 0
2208 58 37 c86 56 235 127 372 178 302 113 700 161 1005 121 155 -21 292 -49
397 -82 61 -20 85 -33 117 -67 41 -43 260 -299 341 -397 24 -30 103 -122 175
-205 72 -82 167 -193 210 -246 108 -130 249 -295 455 -534 94 -110 181 -211
192 -223 11 -13 49 -58 85 -100 141 -167 310 -367 343 -408 19 -24 38 -43 42
-44 3 0 48 60 99 133 52 72 108 152 126 177 91 129 117 166 203 290 51 74 138
200 195 280 147 209 298 425 465 665 80 116 180 257 221 315 41 58 138 195
214 305 76 110 191 274 255 365 126 178 266 380 317 457 18 26 60 86 95 133
34 47 109 155 167 240 57 85 148 216 201 290 53 74 107 151 120 171 14 20 50
73 80 117 l55 82 758 0 757 0 0 -4250z m1905 3871 c3 -5 1 -12 -4 -15 -5 -3
-11 1 -15 9 -6 16 9 21 19 6z m-14575 -302 c-7 -11 -14 -19 -16 -16 -7 7 7 37
17 37 6 0 5 -9 -1 -21z m-70 -4 c0 -8 -2 -15 -4 -15 -2 0 -6 7 -10 15 -3 8 -1
15 4 15 6 0 10 -7 10 -15z m-90 -325 c0 -5 -5 -10 -11 -10 -5 0 -7 5 -4 10 3
6 8 10 11 10 2 0 4 -4 4 -10z m15240 -394 c0 -3 -4 -8 -10 -11 -5 -3 -10 -1
-10 4 0 6 5 11 10 11 6 0 10 -2 10 -4z m3 -63 c14 -18 1 -16 -17 3 -9 8 -13
21 -9 27 4 7 8 6 11 -3 3 -8 9 -21 15 -27z m-15566 -415 c-3 -7 -5 -2 -5 12 0
14 2 19 5 13 2 -7 2 -19 0 -25z m-217 -855 c-11 -17 -11 -17 -6 0 3 10 6 24 7
30 0 9 2 9 5 0 3 -7 0 -20 -6 -30z m-143 -1475 c-3 -8 -6 -5 -6 6 -1 11 2 17
5 13 3 -3 4 -12 1 -19z m11215 -755 c-22 -81 -54 -204 -72 -273 -18 -69 -58
-213 -88 -320 -30 -107 -58 -208 -62 -225 -70 -271 -140 -534 -145 -547 -7
-17 15 -18 376 -18 211 0 401 -3 421 -6 l37 -6 -27 -37 c-15 -20 -31 -40 -35
-46 -11 -14 -101 -135 -166 -225 -30 -41 -82 -113 -116 -160 -34 -47 -226
-314 -426 -594 -200 -280 -392 -547 -427 -595 -34 -47 -78 -108 -97 -136 -115
-164 -212 -304 -227 -325 -10 -13 -19 -22 -21 -19 -4 4 51 212 93 354 30 101
150 533 161 580 6 22 25 90 43 150 53 174 81 278 110 408 l6 27 -415 0 -415 0
53 78 c30 42 84 121 121 175 37 55 139 201 228 325 89 125 190 268 224 317
213 304 316 450 374 530 56 78 109 153 211 300 124 180 193 277 236 330 22 29
49 67 58 85 31 59 27 22 -13 -127z m5061 -713 c-3 -11 -7 -20 -9 -20 -2 0 -4
9 -4 20 0 11 4 20 9 20 5 0 7 -9 4 -20z m-6 -50 c-1 -11 -5 -20 -9 -20 -10 0
-10 4 -2 24 8 22 13 20 11 -4z m-1 -42 c4 -7 3 -8 -4 -4 -15 9 -16 -6 -2 -20
7 -7 6 -11 -5 -11 -9 0 -15 9 -15 24 0 24 14 31 26 11z m-25 -76 c-15 -29 -20
-101 -7 -98 6 2 8 1 3 -1 -4 -3 -4 -10 0 -16 4 -6 0 -8 -9 -4 -12 4 -17 -3
-22 -26 -4 -18 -2 -33 4 -35 5 -2 3 -10 -5 -19 -11 -11 -13 -19 -5 -28 7 -9 6
-16 -6 -25 -8 -8 -13 -22 -11 -31 3 -10 -2 -24 -11 -31 -13 -11 -14 -9 -10 17
19 106 73 323 80 319 4 -3 4 -13 -1 -22z m-95 -397 c0 -14 -4 -25 -8 -25 -5 0
-8 -12 -8 -27 0 -16 -5 -35 -10 -43 -11 -17 -5 34 12 88 11 38 16 41 14 7z
m65 -195 c15 8 19 7 19 -5 0 -8 -9 -15 -19 -15 -11 0 -21 -6 -24 -12 -2 -8 -8
-9 -13 -4 -5 5 -4 11 3 13 7 2 11 10 9 16 -1 7 -1 9 1 5 3 -5 13 -3 24 2z
m-124 -19 c0 -11 -5 -18 -9 -15 -4 3 -5 11 -1 19 7 21 12 19 10 -4z m20 -33
c-3 -8 -6 -5 -6 6 -1 11 2 17 5 13 3 -3 4 -12 1 -19z m-40 -30 c-3 -8 -6 -5
-6 6 -1 11 2 17 5 13 3 -3 4 -12 1 -19z m184 12 c3 -20 4 -25 12 -37 5 -7 4
-13 -1 -13 -6 0 -13 7 -16 16 -4 9 -13 14 -21 10 -18 -7 -19 0 -2 19 14 17 27
19 28 5z m-197 -56 c-6 -21 -4 -25 7 -19 10 6 9 2 -2 -11 -9 -10 -15 -29 -14
-41 1 -13 -4 -23 -11 -23 -7 0 -10 -8 -7 -20 3 -13 0 -20 -8 -20 -11 0 -11 -2
1 -10 8 -5 23 -7 33 -4 12 4 17 0 17 -13 1 -12 5 -8 15 12 7 17 14 26 14 20 1
-5 5 -3 11 5 5 8 13 11 17 6 4 -4 -3 -16 -16 -27 -23 -19 -23 -49 0 -49 6 0 9
7 6 15 -4 8 -2 17 3 20 12 7 12 -21 1 -49 -7 -18 -8 -18 -14 -2 -4 9 -12 14
-18 11 -8 -5 -8 -10 0 -18 16 -16 13 -34 -5 -41 -14 -5 -15 -4 -4 9 8 10 9 15
1 15 -11 0 -15 -13 -12 -37 1 -7 -3 -13 -9 -13 -5 0 -10 -5 -10 -11 0 -5 6 -7
13 -3 7 5 7 1 -2 -10 -13 -15 -15 -16 -23 -2 -5 9 -14 16 -19 16 -6 0 -3 -7 6
-16 14 -14 18 -40 5 -33 -3 1 -15 -3 -27 -10 -19 -10 -23 -9 -23 4 0 9 -4 13
-10 10 -5 -3 -10 -1 -10 4 0 6 4 11 10 11 5 0 7 8 4 18 -5 16 -5 16 9 0 12
-16 14 -15 14 13 0 19 -3 25 -8 17 -7 -10 -12 -9 -26 5 -9 9 -12 17 -6 17 6 0
13 -6 16 -12 2 -7 8 -1 12 15 4 15 11 27 16 27 5 0 9 9 9 20 0 11 -5 20 -11
20 -6 0 -9 -6 -6 -14 3 -8 -1 -17 -9 -20 -18 -7 -19 18 -1 36 8 7 14 20 14 28
0 15 41 157 50 173 9 16 13 6 7 -19z m56 22 c0 -2 -7 -6 -15 -10 -8 -3 -15 -1
-15 4 0 6 7 10 15 10 8 0 15 -2 15 -4z m231 -65 c-7 -5 -10 -14 -7 -20 4 -6 3
-11 -3 -11 -5 0 -16 -3 -24 -6 -10 -3 -15 0 -13 8 3 23 14 34 38 35 16 2 19 0
9 -6z m-85 -39 c0 -11 -8 -19 -21 -20 -16 -1 -17 1 -5 8 8 5 11 10 5 10 -7 0
7 14 20 20 1 0 1 -8 1 -18z m-36 -45 c0 -5 -4 -5 -10 -2 -5 3 -10 14 -10 23 0
15 2 15 10 2 5 -8 10 -19 10 -23z m35 -27 c3 -5 2 -10 -4 -10 -5 0 -13 5 -16
10 -3 6 -2 10 4 10 5 0 13 -4 16 -10z m-30 -10 c3 -5 1 -10 -4 -10 -6 0 -11 5
-11 10 0 6 2 10 4 10 3 0 8 -4 11 -10z m75 -19 c0 -5 -7 -12 -16 -15 -14 -5
-15 -4 -4 9 14 17 20 19 20 6z m-40 -11 c0 -5 -2 -10 -4 -10 -3 0 -8 5 -11 10
-3 6 -1 10 4 10 6 0 11 -4 11 -10z m-124 -60 c0 -11 -3 -20 -7 -20 -10 0 -19
27 -12 34 12 11 19 6 19 -14z m37 6 c6 -14 0 -26 -13 -26 -3 0 -6 9 -7 20 -2
23 12 27 20 6z m92 -6 c3 -5 1 -10 -4 -10 -6 0 -11 5 -11 10 0 6 2 10 4 10 3
0 8 -4 11 -10z m-32 -25 c-3 -9 -8 -14 -10 -11 -3 3 -2 9 2 15 9 16 15 13 8
-4z m-139 -11 c3 -8 2 -12 -4 -9 -6 3 -10 10 -10 16 0 14 7 11 14 -7z m96 2
c0 -3 -4 -8 -10 -11 -5 -3 -10 -1 -10 4 0 6 5 11 10 11 6 0 10 -2 10 -4z m-16
-42 c3 -8 2 -12 -4 -9 -6 3 -10 10 -10 16 0 14 7 11 14 -7z m-99 -15 c5 -13
12 -18 22 -14 12 4 13 2 5 -7 -8 -10 -6 -20 8 -38 16 -21 20 -22 36 -10 15 13
17 13 12 0 -5 -18 -48 -27 -48 -10 0 6 -5 8 -12 4 -8 -5 -9 -2 -5 10 6 14 3
16 -16 10 -12 -4 -25 -11 -28 -16 -4 -7 -9 -6 -13 0 -10 16 -46 10 -46 -8 0
-13 -1 -13 -10 0 -8 12 -10 10 -10 -8 0 -16 -4 -21 -12 -16 -10 5 -10 4 -1 -6
10 -11 15 -11 27 -1 16 13 36 7 36 -11 0 -6 -7 -5 -16 3 -15 12 -16 11 -11
-11 4 -14 4 -19 1 -12 -3 6 -14 12 -24 12 -20 0 -46 -27 -36 -37 3 -3 6 -1 6
6 0 7 5 9 10 6 20 -13 10 -32 -14 -28 -18 4 -23 10 -18 22 5 14 4 14 -11 2 -9
-7 -17 -9 -17 -3 0 11 29 26 44 23 5 -1 6 8 3 21 -4 12 0 29 7 38 15 16 5 60
-14 60 -5 0 -10 7 -10 15 0 23 17 18 25 -7 4 -15 8 -18 12 -10 4 10 9 8 21 -5
18 -20 35 -23 48 -10 4 4 -1 7 -11 7 -21 0 -12 13 11 16 12 2 15 -4 11 -22 -2
-13 0 -24 4 -24 5 0 9 4 9 10 0 5 7 7 15 4 19 -8 19 7 0 32 -17 22 -19 34 -6
34 5 0 13 -9 16 -21z m90 -17 c-3 -3 -11 0 -18 7 -9 10 -8 11 6 5 10 -3 15 -9
12 -12z m-239 -37 c1 -8 -4 -11 -11 -8 -8 2 -11 11 -8 19 6 16 16 11 19 -11z
m217 19 c-7 -3 -9 -12 -6 -20 3 -8 1 -14 -5 -14 -8 0 -9 16 -3 38 1 1 7 2 14
1 9 0 9 -2 0 -5z m-237 -51 c0 -10 -7 -24 -13 -31 -12 -13 -15 -29 -17 -92 -1
-15 -6 -24 -14 -22 -8 1 -11 -2 -7 -8 4 -6 1 -17 -5 -25 -10 -12 -10 -15 1
-15 11 -1 11 -3 -1 -13 -19 -15 -46 -76 -42 -97 3 -13 2 -13 -7 0 -9 12 -11
11 -11 -7 0 -13 -4 -23 -10 -23 -5 0 -10 -9 -10 -21 0 -11 -9 -34 -21 -50 -11
-16 -16 -29 -10 -29 6 0 11 -5 11 -11 0 -5 -4 -7 -10 -4 -5 3 -15 -7 -21 -22
-6 -15 -15 -36 -20 -45 -13 -25 -11 -41 3 -32 8 5 9 2 4 -11 -7 -18 -6 -18 14
0 18 16 23 17 30 5 7 -10 10 -11 10 -2 0 6 8 12 18 11 10 0 12 -3 5 -6 -7 -2
-13 -9 -13 -14 0 -6 8 -5 20 1 14 8 20 8 20 0 0 -6 5 -8 12 -4 7 5 2 15 -17
30 -15 12 -24 27 -21 33 11 18 26 13 26 -8 0 -11 4 -23 10 -26 6 -3 7 1 4 9
-3 9 -1 16 6 16 7 0 5 6 -5 16 -12 13 -13 19 -4 30 9 12 9 13 -4 8 -8 -3 -18
-12 -21 -20 -3 -9 -10 -12 -16 -9 -5 3 -10 0 -10 -7 0 -9 -3 -9 -10 2 -8 12
-10 11 -10 -7 0 -12 6 -23 13 -26 6 -2 0 -6 -15 -9 -16 -3 -28 -1 -28 3 0 5 5
9 11 9 6 0 9 9 6 19 -6 24 38 71 46 49 4 -9 6 -7 6 5 1 9 -4 17 -10 17 -12 0
-1 43 12 48 5 2 9 10 9 17 0 21 22 65 32 65 5 0 4 -8 -1 -19 -6 -10 -8 -29 -6
-42 3 -13 6 -36 7 -51 1 -15 7 -26 13 -25 17 3 24 21 14 33 -7 9 -4 25 9 54
18 41 19 41 37 23 17 -16 18 -16 12 -1 -3 10 -2 20 4 24 6 3 8 12 5 20 -3 8 1
14 9 14 16 0 21 -25 6 -34 -12 -8 -20 -56 -10 -56 5 0 9 -6 9 -12 -1 -7 -12 1
-25 17 -18 22 -25 25 -25 13 0 -9 -3 -18 -7 -21 -5 -2 -2 -2 5 -1 6 2 12 -3
12 -11 0 -10 10 -15 27 -15 14 0 23 -3 19 -7 -11 -11 -45 -13 -51 -3 -3 6 -12
10 -18 10 -9 0 -8 -3 1 -8 18 -12 -8 -60 -28 -54 -13 4 -13 3 -2 -11 11 -13
10 -16 -5 -20 -14 -3 -12 -6 10 -11 15 -5 27 -12 27 -17 0 -5 -6 -6 -14 -3
-18 7 -35 -23 -30 -53 4 -26 1 -28 -26 -10 -17 10 -22 9 -30 -3 -5 -8 -10 -10
-10 -4 0 7 -9 14 -21 17 -15 4 -19 2 -15 -9 5 -12 1 -14 -15 -9 -16 5 -19 4
-14 -5 5 -9 4 -11 -4 -6 -6 4 -9 11 -6 16 3 5 1 11 -5 15 -12 7 -14 65 -2 65
5 0 15 19 21 43 18 58 51 130 65 139 6 4 7 8 2 8 -4 0 -1 11 8 25 9 13 16 33
16 45 0 11 3 20 8 20 9 0 32 49 32 67 0 23 52 173 60 173 4 0 7 -8 6 -17z
m188 2 c11 -8 16 -18 11 -22 -4 -5 -10 -2 -12 5 -3 6 -9 10 -14 6 -21 -12 -48
-12 -53 2 -4 12 -2 12 14 4 19 -10 24 -6 21 13 -2 11 12 8 33 -8z m43 -36 c2
-16 -1 -18 -11 -10 -7 6 -17 7 -22 3 -4 -4 -2 1 5 11 18 23 26 22 28 -4z m-32
-25 c7 2 18 0 26 -6 11 -8 10 -9 -3 -4 -10 3 -18 1 -18 -4 0 -6 6 -10 13 -10
8 0 7 -3 -3 -10 -9 -6 -17 -5 -21 2 -4 7 -9 7 -13 -1 -4 -6 -2 -11 3 -11 6 0
12 -8 12 -17 1 -17 2 -17 6 0 6 25 21 21 21 -5 0 -29 5 -49 17 -68 8 -13 7
-13 -9 -1 -15 13 -19 13 -27 0 -7 -12 -9 -12 -9 1 0 13 -2 13 -9 1 -8 -12 -11
-12 -25 1 -8 9 -12 19 -8 23 4 5 2 5 -5 1 -12 -7 -7 -36 6 -36 4 0 15 -6 25
-13 16 -12 16 -13 -3 -13 -11 0 -17 4 -15 8 3 4 0 8 -5 8 -14 0 -14 -23 -1
-36 7 -7 3 -14 -14 -22 -22 -10 -26 -8 -31 9 -7 20 -34 22 -47 4 -4 -5 -10 -6
-15 -2 -4 5 -2 12 5 16 7 4 10 16 6 27 -7 19 -6 19 8 0 10 -13 17 -15 22 -8 4
7 12 12 17 12 6 0 8 -3 5 -8 -6 -11 22 -47 31 -38 4 4 2 11 -5 15 -7 4 -14 18
-15 29 -1 23 -3 25 -42 25 -41 0 -45 -2 -45 -18 0 -8 -6 -15 -12 -16 -10 0
-10 -2 0 -6 14 -6 16 -33 2 -33 -5 0 -10 6 -11 13 0 9 -2 9 -5 0 -3 -7 -12 -9
-20 -6 -7 3 -12 9 -9 13 3 5 0 12 -6 16 -8 4 -9 3 -5 -4 4 -7 1 -12 -8 -12
-23 0 -20 18 5 25 13 5 17 10 11 18 -14 18 -11 45 5 51 8 3 11 1 8 -4 -3 -6 1
-10 10 -10 9 0 14 4 11 9 -3 5 4 12 17 16 15 4 18 8 9 12 -10 4 -7 9 10 17 12
7 22 19 20 26 -3 11 0 11 12 0 13 -10 16 -10 16 0 0 8 3 10 7 7 9 -9 -27 -48
-38 -41 -5 3 -9 -1 -9 -9 0 -8 -7 -18 -16 -21 -9 -4 -14 -9 -11 -12 3 -3 26 3
51 15 36 15 49 17 58 8 7 -7 28 -17 47 -24 32 -12 33 -11 17 6 -9 10 -16 22
-16 28 0 13 -29 38 -36 31 -3 -3 3 -13 12 -22 9 -9 14 -19 11 -22 -3 -3 -14 3
-24 13 -15 15 -17 24 -10 41 12 26 27 29 27 5 0 -12 3 -14 11 -6 8 8 8 17 0
31 -6 11 -11 24 -10 29 0 4 5 -2 11 -15 6 -13 17 -21 23 -18z m-45 16 c0 -5
-2 -10 -4 -10 -3 0 -8 5 -11 10 -3 6 -1 10 4 10 6 0 11 -4 11 -10z m-152 -75
c-3 -3 -9 2 -12 12 -6 14 -5 15 5 6 7 -7 10 -15 7 -18z m102 0 c-7 -9 -15 -13
-19 -10 -3 3 1 10 9 15 21 14 24 12 10 -5z m-112 -151 c12 -8 22 -20 22 -26 0
-6 -6 -6 -15 2 -13 11 -14 10 -8 -6 6 -17 5 -18 -11 -5 -9 8 -16 10 -15 5 4
-24 -2 -44 -15 -44 -9 0 -13 -8 -10 -22 l5 -23 -10 22 c-8 18 -6 31 11 60 12
20 18 34 13 31 -6 -3 -16 0 -23 8 -11 12 -9 14 10 14 13 0 34 -7 46 -16z m202
-18 c0 -8 -4 -17 -10 -21 -5 -3 -6 -13 -3 -22 4 -11 3 -14 -5 -9 -15 9 -16 36
-1 36 6 0 9 7 5 15 -3 8 -1 15 4 15 6 0 10 -6 10 -14z m-50 -48 c0 -4 -9 -8
-20 -8 -14 0 -20 7 -20 23 -1 21 -1 21 -12 2 -16 -29 -16 -29 -32 -12 -15 14
-12 27 6 27 5 0 6 -4 3 -10 -3 -5 -2 -10 4 -10 5 0 12 9 16 19 6 20 7 20 31
-1 13 -12 24 -25 24 -30z m4 36 c3 -8 2 -12 -4 -9 -6 3 -10 10 -10 16 0 14 7
11 14 -7z m-64 -84 c0 -10 -5 -22 -10 -25 -6 -4 -8 -11 -5 -16 4 -5 -2 -6 -12
-2 -16 6 -17 5 -3 -13 14 -18 14 -18 -3 -5 -16 13 -17 17 -5 25 8 6 17 19 21
30 6 14 4 17 -8 12 -8 -3 -15 -1 -15 3 0 11 22 20 33 14 4 -2 7 -13 7 -23z
m56 6 c13 4 15 3 7 -3 -7 -5 -11 -22 -8 -38 2 -17 2 -24 -1 -17 -3 6 -12 12
-20 12 -15 0 -16 1 -18 43 -2 24 0 26 10 13 7 -10 19 -14 30 -10z m-136 -56
c0 -5 -2 -10 -4 -10 -3 0 -8 5 -11 10 -3 6 -1 10 4 10 6 0 11 -4 11 -10z m104
-26 c10 -25 -1 -29 -14 -5 -6 12 -7 21 -1 21 5 0 12 -7 15 -16z m-69 -12 c-3
-3 -11 0 -18 7 -9 10 -8 11 6 5 10 -3 15 -9 12 -12z m-55 -1 c0 -6 -4 -13 -10
-16 -5 -3 -10 1 -10 9 0 9 5 16 10 16 6 0 10 -4 10 -9z m15 -21 c3 -5 1 -10
-4 -10 -6 0 -11 5 -11 10 0 6 2 10 4 10 3 0 8 -4 11 -10z m65 -21 c0 -6 -4 -7
-10 -4 -5 3 -10 11 -10 16 0 6 5 7 10 4 6 -3 10 -11 10 -16z m30 11 c0 -5 -2
-10 -4 -10 -3 0 -8 5 -11 10 -3 6 -1 10 4 10 6 0 11 -4 11 -10z m-56 -25 c3
-8 1 -15 -4 -15 -6 0 -10 6 -10 13 0 8 -3 7 -10 -3 -8 -13 -11 -13 -22 -1 -8
9 -9 11 -1 7 6 -3 14 -2 18 4 9 15 22 12 29 -5z m46 -5 c0 -5 -5 -10 -11 -10
-5 0 -7 5 -4 10 3 6 8 10 11 10 2 0 4 -4 4 -10z m-110 -10 c0 -5 8 -10 18 -11
11 0 12 -2 4 -6 -7 -3 -19 0 -26 6 -14 11 -14 -2 -2 -55 2 -13 -1 -21 -9 -21
-8 0 -12 10 -10 24 1 13 -2 26 -6 29 -11 6 8 44 21 44 6 0 10 -4 10 -10z m98
-19 c11 -7 10 -9 -3 -14 -9 -4 -14 -3 -10 2 3 5 -1 12 -7 14 -7 3 -8 6 -3 6 6
0 16 -3 23 -8z m-68 -23 c0 -4 -4 -8 -9 -8 -6 0 -12 4 -15 8 -3 5 1 9 9 9 8 0
15 -4 15 -9z m-257 -28 c-3 -10 -11 -24 -18 -30 -9 -8 -10 -3 -1 24 11 36 28
41 19 6z m151 14 c3 -8 2 -12 -4 -9 -6 3 -10 10 -10 16 0 14 7 11 14 -7z
m-116 -16 c-2 -7 2 -12 7 -11 6 1 11 -8 12 -20 0 -12 -1 -16 -4 -8 -4 11 -7
11 -13 0 -5 -7 -4 -23 1 -37 8 -20 7 -23 -6 -18 -8 3 -15 1 -15 -4 0 -6 -4
-10 -8 -10 -5 0 -9 7 -9 15 0 8 7 15 16 15 13 0 13 2 2 9 -10 7 -11 13 -2 29
6 12 11 25 10 29 -2 13 1 23 6 23 3 0 4 -6 3 -12z m62 -20 c0 -12 -1 -19 -3
-17 -1 2 -9 12 -16 22 -12 14 -11 17 3 17 10 0 16 -8 16 -22z m183 -16 c-3 -7
-9 -10 -12 -5 -3 4 -10 11 -15 15 -4 4 1 6 12 5 12 -1 18 -6 15 -15z m-159 -1
c3 -5 -1 -11 -9 -14 -9 -4 -12 -1 -8 9 6 16 10 17 17 5z m116 -6 c0 -8 -4 -15
-10 -15 -5 0 -7 7 -4 15 4 8 8 15 10 15 2 0 4 -7 4 -15z m-63 -57 c-7 -10 -15
-18 -18 -18 -10 0 -5 34 6 42 6 5 6 8 -1 8 -6 0 -11 7 -11 16 0 12 5 10 18 -7
13 -18 14 -27 6 -41z m-200 34 c0 -10 -7 -19 -14 -19 -14 0 -18 19 -6 30 12
13 22 7 20 -11z m96 -7 c-3 -9 -8 -14 -10 -11 -3 3 -2 9 2 15 9 16 15 13 8 -4z
m137 0 c7 -9 8 -15 2 -15 -5 0 -12 7 -16 15 -3 8 -4 15 -2 15 2 0 9 -7 16 -15z
m50 -25 c0 -5 -5 -10 -11 -10 -5 0 -7 5 -4 10 3 6 8 10 11 10 2 0 4 -4 4 -10z
m-318 -35 c-9 -19 -20 -35 -24 -35 -4 0 -8 -7 -8 -15 0 -8 -4 -15 -10 -15 -10
0 -4 19 22 72 20 42 39 35 20 -7z m152 23 c-3 -4 -9 -8 -15 -8 -5 0 -9 4 -9 8
0 5 7 9 15 9 8 0 12 -4 9 -9z m166 -20 c0 -4 -4 -8 -9 -8 -6 0 -12 4 -15 8 -3
5 1 9 9 9 8 0 15 -4 15 -9z m-260 -16 c0 -4 -9 -8 -19 -8 -15 0 -17 3 -9 13
10 12 28 9 28 -5z m180 -12 c0 -17 -15 -11 -28 11 -12 19 -11 19 8 9 11 -6 20
-15 20 -20z m-55 -10 c3 -6 -1 -7 -9 -4 -18 7 -21 14 -7 14 6 0 13 -4 16 -10z
m80 -20 c3 -6 -1 -7 -9 -4 -18 7 -21 14 -7 14 6 0 13 -4 16 -10z m-30 -20 c3
-5 1 -10 -4 -10 -6 0 -11 5 -11 10 0 6 2 10 4 10 3 0 8 -4 11 -10z m-278 -16
c0 -7 -4 -11 -9 -8 -4 3 -8 -6 -8 -20 0 -14 -4 -26 -10 -26 -5 0 -10 -7 -10
-15 0 -8 -4 -15 -9 -15 -7 0 -31 -51 -32 -70 0 -3 -8 -13 -16 -22 -9 -10 -12
-18 -7 -18 5 0 4 -4 -1 -8 -6 -4 -21 -23 -33 -42 -12 -20 -22 -28 -22 -19 0 9
11 33 25 53 14 20 25 42 25 47 0 6 9 22 20 36 11 14 20 33 20 42 0 10 9 27 20
39 11 12 20 30 20 40 0 10 6 19 13 19 8 0 14 -6 14 -13z m240 -20 c-5 -37 -16
-57 -18 -33 -1 8 -1 18 0 22 1 5 -8 6 -19 2 -15 -5 -18 -3 -14 8 3 9 14 13 27
11 12 -2 16 -2 9 2 -13 6 -7 24 9 24 6 0 9 -15 6 -36z m67 0 c9 -22 8 -26 -6
-22 -13 5 -20 38 -8 38 4 0 11 -7 14 -16z m-134 -4 c0 -5 -7 -7 -15 -4 -8 4
-15 8 -15 10 0 2 7 4 15 4 8 0 15 -4 15 -10z m-170 -50 c0 -5 -2 -10 -4 -10
-3 0 -8 5 -11 10 -3 6 -1 10 4 10 6 0 11 -4 11 -10z m230 -15 c0 -12 -19 -12
-23 0 -4 9 -1 12 9 8 7 -3 14 -7 14 -8z m-149 -10 c11 6 11 5 2 -5 -12 -14
-33 -6 -33 13 0 8 3 7 9 -2 5 -8 14 -10 22 -6z m-111 -77 c0 -5 -7 -8 -15 -8
-17 0 -18 2 -9 25 5 13 8 14 15 3 5 -7 9 -16 9 -20z m-40 -38 c0 -5 -5 -10
-11 -10 -5 0 -7 5 -4 10 3 6 8 10 11 10 2 0 4 -4 4 -10z m-6 -32 c-3 -5 -10
-6 -15 -3 -5 4 -9 1 -9 -6 0 -7 -3 -10 -6 -6 -9 9 3 24 20 24 8 0 13 -4 10 -9z
m-84 -52 c0 -8 -9 -14 -19 -13 -11 0 -17 5 -15 9 3 5 10 6 15 3 5 -4 9 -1 9 4
0 6 2 11 5 11 3 0 5 -6 5 -14z m-27 -43 c-7 -3 -13 -11 -13 -19 0 -8 -5 -14
-11 -14 -6 0 -9 -6 -6 -14 3 -8 -2 -21 -12 -30 -20 -18 -31 -20 -31 -6 0 6 7
10 16 10 8 0 12 4 9 10 -7 12 45 84 54 74 3 -4 0 -9 -6 -11z m-110 -188 c-3
-8 -11 -15 -19 -15 -8 0 -14 -5 -14 -12 0 -6 -3 -9 -6 -6 -8 9 27 59 37 53 4
-3 6 -12 2 -20z m-43 -55 c0 -5 -5 -10 -11 -10 -5 0 -7 5 -4 10 3 6 8 10 11
10 2 0 4 -4 4 -10z m53 -63 c7 4 6 -1 -2 -11 -16 -19 -38 -6 -25 15 6 10 9 10
12 1 2 -7 9 -9 15 -5z m-33 -27 c0 -5 -4 -10 -10 -10 -5 0 -10 5 -10 10 0 6 5
10 10 10 6 0 10 -4 10 -10z m4 -35 c-4 -8 -8 -15 -10 -15 -2 0 -4 7 -4 15 0 8
4 15 10 15 5 0 7 -7 4 -15z m-149 -74 c-3 -6 -11 -11 -16 -11 -5 0 -4 6 3 14
14 16 24 13 13 -3z m-15 -30 c0 -5 -7 -14 -15 -21 -12 -10 -15 -10 -15 2 0 8
3 18 7 21 9 10 23 9 23 -2z m-163 -253 c-3 -8 -6 -5 -6 6 -1 11 2 17 5 13 3
-3 4 -12 1 -19z m-69 -76 c-10 -2 -18 -8 -18 -14 0 -6 -2 -9 -5 -6 -12 12 7
37 23 30 16 -6 15 -7 0 -10z m102 -22 c0 -5 -5 -10 -11 -10 -5 0 -7 5 -4 10 3
6 8 10 11 10 2 0 4 -4 4 -10z m-178 -98 c-7 -2 -12 -10 -12 -18 0 -9 -4 -12
-10 -9 -5 3 -10 2 -10 -4 0 -5 6 -12 13 -14 9 -4 9 -6 -1 -6 -7 -1 -15 5 -18
13 -6 17 27 55 41 48 5 -3 4 -7 -3 -10z m-67 -61 c3 -5 1 -12 -5 -16 -5 -3
-10 1 -10 9 0 18 6 21 15 7z m89 -13 c-3 -4 -9 -8 -15 -8 -5 0 -9 4 -9 8 0 5
7 9 15 9 8 0 12 -4 9 -9z m-134 -48 c0 -5 -5 -10 -11 -10 -5 0 -7 5 -4 10 3 6
8 10 11 10 2 0 4 -4 4 -10z m-15 -68 c-3 -3 -11 0 -18 7 -9 10 -8 11 6 5 10
-3 15 -9 12 -12z m-42 -7 c-3 -9 -8 -14 -10 -11 -3 3 -2 9 2 15 9 16 15 13 8
-4z m-28 -35 c3 -5 -1 -10 -10 -10 -9 0 -13 5 -10 10 3 6 8 10 10 10 2 0 7 -4
10 -10z m-30 -50 c3 -5 1 -10 -4 -10 -6 0 -11 5 -11 10 0 6 2 10 4 10 3 0 8
-4 11 -10z m113 -55 c-3 -3 -9 2 -12 12 -6 14 -5 15 5 6 7 -7 10 -15 7 -18z
m-193 -34 c3 -5 0 -13 -6 -17 -8 -4 -9 -3 -5 4 4 7 2 12 -3 12 -6 0 -11 -5
-11 -12 0 -6 -3 -9 -6 -5 -7 7 4 27 16 27 5 0 11 -4 15 -9z m-42 -65 c-4 -6
-8 -5 -11 2 -2 7 -9 9 -15 5 -7 -4 -6 1 2 11 11 13 16 14 22 4 4 -6 5 -17 2
-22z m-85 -166 c-15 -24 -22 -19 -13 9 3 12 11 19 16 16 5 -4 3 -14 -3 -25z
m-1708 -1384 c0 -3 -4 -8 -10 -11 -5 -3 -10 -1 -10 4 0 6 5 11 10 11 6 0 10
-2 10 -4z m-366 -222 c4 -10 1 -14 -6 -12 -15 5 -23 28 -10 28 5 0 13 -7 16
-16z m-400 -236 c-3 -4 -11 -5 -19 -1 -21 7 -19 12 4 10 11 0 18 -5 15 -9z"/>
<path d="M16303 5935 c1 -16 -3 -41 -7 -53 -8 -23 -7 -23 11 -5 18 18 26 53
12 53 -4 0 -10 8 -12 18 -2 9 -4 4 -4 -13z"/>
<path d="M16266 5943 c6 -4 14 -15 17 -23 5 -11 6 -9 4 4 -1 11 -9 21 -17 23
-10 3 -11 2 -4 -4z"/>
<path d="M16280 5839 c0 -5 5 -7 10 -4 6 3 10 8 10 11 0 2 -4 4 -10 4 -5 0
-10 -5 -10 -11z"/>
<path d="M16040 5275 c0 -8 2 -15 4 -15 2 0 6 7 10 15 3 8 1 15 -4 15 -6 0
-10 -7 -10 -15z"/>
<path d="M16270 5536 c0 -9 5 -16 10 -16 6 0 10 4 10 9 0 6 -4 13 -10 16 -5 3
-10 -1 -10 -9z"/>
<path d="M16260 5290 c0 -5 5 -10 11 -10 5 0 7 5 4 10 -3 6 -8 10 -11 10 -2 0
-4 -4 -4 -10z"/>
<path d="M6345 16674 c-17 -12 -18 -16 -5 -24 8 -5 17 -7 21 -4 4 2 9 -3 13
-11 7 -20 26 -19 26 1 0 8 -4 13 -9 9 -5 -3 -13 0 -17 6 -5 8 1 10 19 7 18 -3
24 -1 20 8 -3 9 -11 10 -30 3 -33 -12 -38 -11 -23 6 16 19 11 19 -15 -1z"/>
<path d="M8401 16678 c7 -8 23 -12 36 -10 30 6 24 12 -17 19 -27 4 -30 2 -19
-9z"/>
<path d="M6560 16669 c0 -5 5 -7 10 -4 6 3 10 8 10 11 0 2 -4 4 -10 4 -5 0
-10 -5 -10 -11z"/>
<path d="M8577 16673 c-21 -6 -13 -23 12 -23 10 0 18 7 18 15 0 8 -3 14 -6 14
-3 -1 -14 -3 -24 -6z"/>
<path d="M7466 16654 c-4 -10 -1 -14 6 -12 15 5 23 28 10 28 -5 0 -13 -7 -16
-16z"/>
<path d="M7580 16660 c0 -5 5 -10 11 -10 5 0 7 5 4 10 -3 6 -8 10 -11 10 -2 0
-4 -4 -4 -10z"/>
<path d="M8320 16659 c0 -5 5 -7 10 -4 6 3 10 8 10 11 0 2 -4 4 -10 4 -5 0
-10 -5 -10 -11z"/>
<path d="M7933 16645 c0 -7 6 -11 14 -8 7 3 13 6 13 8 0 2 -6 5 -13 8 -8 3
-14 -1 -14 -8z"/>
<path d="M8528 16653 c7 -3 16 -2 19 1 4 3 -2 6 -13 5 -11 0 -14 -3 -6 -6z"/>
<path d="M8776 16651 c-3 -4 6 -6 19 -3 14 2 25 6 25 8 0 8 -39 4 -44 -5z"/>
<path d="M9133 16645 c0 -7 24 -9 60 -7 92 5 105 17 18 17 -46 0 -78 -4 -78
-10z"/>
<path d="M9305 16650 c3 -5 8 -10 11 -10 2 0 4 5 4 10 0 6 -5 10 -11 10 -5 0
-7 -4 -4 -10z"/>
<path d="M6300 16635 c-6 -8 -10 -19 -8 -24 1 -6 8 1 15 14 13 28 11 31 -7 10z"/>
<path d="M6455 16618 c9 -15 14 -32 10 -38 -3 -5 2 -10 11 -10 10 0 14 3 11 7
-4 3 -1 13 6 21 10 13 9 14 -1 8 -8 -5 -20 1 -33 16 l-20 23 16 -27z"/>
<path d="M9310 16620 c0 -12 28 -21 35 -11 2 5 -4 11 -15 14 -11 3 -20 2 -20
-3z"/>
<path d="M6340 16599 c0 -5 5 -7 10 -4 6 3 10 8 10 11 0 2 -4 4 -10 4 -5 0
-10 -5 -10 -11z"/>
<path d="M6390 16600 c0 -5 7 -7 15 -4 8 4 15 8 15 10 0 2 -7 4 -15 4 -8 0
-15 -4 -15 -10z"/>
<path d="M6426 16595 c-3 -9 0 -15 9 -15 9 0 12 6 9 15 -4 8 -7 15 -9 15 -2 0
-5 -7 -9 -15z"/>
<path d="M6502 16573 c-5 -10 -6 -27 -1 -38 9 -23 9 -22 13 23 4 36 1 40 -12
15z"/>
<path d="M7255 16570 c-19 -8 -19 -9 3 -9 12 -1 22 4 22 9 0 6 -1 10 -2 9 -2
0 -12 -4 -23 -9z"/>
<path d="M6305 16561 c-3 -5 -2 -12 3 -15 5 -3 9 1 9 9 0 17 -3 19 -12 6z"/>
<path d="M6596 16555 c-19 -14 -18 -15 15 -15 46 0 69 15 37 23 -30 9 -30 9
-52 -8z"/>
<path d="M6828 16563 c-16 -3 -28 -9 -28 -15 0 -7 14 -8 38 -4 20 3 43 6 50 6
6 0 12 4 12 8 0 9 -31 11 -72 5z"/>
<path d="M7130 16559 c0 -5 9 -9 20 -9 11 0 20 2 20 4 0 2 -9 6 -20 9 -11 3
-20 1 -20 -4z"/>
<path d="M7180 16560 c0 -5 9 -9 20 -7 31 5 36 17 7 17 -15 0 -27 -4 -27 -10z"/>
<path d="M6469 16559 c-6 -28 -3 -46 6 -46 12 0 13 32 2 43 -4 4 -7 5 -8 3z"/>
<path d="M6686 16545 c4 -8 8 -15 10 -15 2 0 4 7 4 15 0 8 -4 15 -10 15 -5 0
-7 -7 -4 -15z"/>
<path d="M7010 16542 c0 -9 11 -10 43 -6 56 9 57 11 3 16 -32 2 -46 -1 -46
-10z"/>
<path d="M6186 16525 c-4 -15 -5 -30 -2 -32 8 -8 27 8 21 18 -4 5 -2 9 4 9 5
0 12 -6 14 -12 4 -10 8 -10 16 2 13 18 3 33 -17 25 -8 -3 -19 -1 -22 6 -5 6
-10 0 -14 -16z"/>
<path d="M6550 16535 c0 -8 2 -15 4 -15 2 0 6 7 10 15 3 8 1 15 -4 15 -6 0
-10 -7 -10 -15z"/>
<path d="M6710 16543 c0 -5 11 -9 25 -9 14 -1 25 2 25 7 0 5 -11 9 -25 9 -14
0 -25 -3 -25 -7z"/>
<path d="M9800 16543 c0 -5 18 -8 40 -9 22 -1 37 3 34 7 -6 11 -74 12 -74 2z"/>
<path d="M10140 16546 c0 -2 9 -6 20 -9 11 -3 20 -1 20 4 0 5 -9 9 -20 9 -11
0 -20 -2 -20 -4z"/>
<path d="M10030 16526 c0 -17 16 -30 23 -19 3 5 -1 14 -9 21 -12 10 -14 10
-14 -2z"/>
<path d="M5838 16523 c7 -3 16 -2 19 1 4 3 -2 6 -13 5 -11 0 -14 -3 -6 -6z"/>
<path d="M9980 16520 c0 -13 12 -19 26 -13 21 8 17 19 -6 19 -11 0 -20 -3 -20
-6z"/>
<path d="M6680 16510 c-8 -5 -32 -10 -52 -10 -32 0 -39 -4 -44 -25 -4 -14 -4
-29 0 -32 3 -4 6 1 6 10 0 11 9 15 30 15 19 -1 37 6 46 18 11 14 17 15 20 7 3
-7 13 -13 22 -13 15 1 15 2 -1 11 -9 6 -15 14 -12 20 8 11 4 11 -15 -1z"/>
<path d="M6496 16491 c-16 -17 -16 -19 5 -24 13 -3 18 -10 14 -17 -4 -7 4 -5
17 4 14 9 27 15 29 14 2 -2 -2 3 -11 10 -12 10 -16 10 -21 -5 -5 -15 -6 -15
-12 1 -4 10 -5 22 -1 27 9 15 -2 10 -20 -10z"/>
<path d="M10089 16499 c-11 -7 -11 -9 3 -9 9 0 23 -3 32 -6 9 -3 16 -2 16 4 0
14 -35 21 -51 11z"/>
<path d="M10155 16490 c-4 -6 3 -10 14 -10 25 0 27 6 6 13 -8 4 -17 2 -20 -3z"/>
<path d="M6380 16479 c0 -5 5 -7 10 -4 6 3 10 8 10 11 0 2 -4 4 -10 4 -5 0
-10 -5 -10 -11z"/>
<path d="M10250 16481 c0 -7 -5 -9 -12 -5 -7 5 -8 3 -3 -5 5 -9 10 -10 18 -2
6 6 8 14 4 18 -4 3 -7 1 -7 -6z"/>
<path d="M6280 16460 c-10 -6 -11 -10 -2 -10 6 0 12 -4 12 -10 0 -5 -6 -7 -14
-4 -10 4 -14 -1 -13 -15 l1 -21 22 21 c17 16 23 17 32 6 7 -8 9 -17 5 -20 -3
-4 -1 -7 5 -7 17 0 15 15 -4 31 -14 12 -14 14 3 21 12 6 9 7 -10 3 -19 -4 -26
-2 -22 5 8 12 4 13 -15 0z"/>
<path d="M10320 16462 c0 -5 7 -13 16 -16 10 -4 14 -1 12 6 -5 15 -28 23 -28
10z"/>
<path d="M6146 16443 c-3 -7 0 -15 6 -19 7 -4 8 -3 4 4 -5 8 5 12 33 12 23 0
41 4 41 8 0 13 -79 8 -84 -5z"/>
<path d="M6231 16439 c-14 -11 -32 -18 -41 -16 -9 2 -24 -1 -34 -8 -15 -12
-12 -14 23 -20 23 -4 48 -2 58 4 10 6 15 11 11 11 -4 0 -3 11 2 25 11 30 12
30 -19 4z"/>
<path d="M6478 16443 c7 -3 16 -2 19 1 4 3 -2 6 -13 5 -11 0 -14 -3 -6 -6z"/>
<path d="M6600 16439 c0 -5 5 -7 10 -4 6 3 10 8 10 11 0 2 -4 4 -10 4 -5 0
-10 -5 -10 -11z"/>
<path d="M6115 16431 c-3 -5 -2 -12 3 -15 5 -3 9 1 9 9 0 17 -3 19 -12 6z"/>
<path d="M5990 16420 c0 -5 5 -10 11 -10 5 0 7 5 4 10 -3 6 -8 10 -11 10 -2 0
-4 -4 -4 -10z"/>
<path d="M10440 16411 c0 -5 5 -13 10 -16 6 -3 10 -2 10 4 0 5 -4 13 -10 16
-5 3 -10 2 -10 -4z"/>
<path d="M10482 16396 c7 -8 16 -12 21 -9 11 7 -2 23 -19 23 -12 0 -12 -2 -2
-14z"/>
<path d="M6115 16390 c3 -5 8 -10 11 -10 2 0 4 5 4 10 0 6 -5 10 -11 10 -5 0
-7 -4 -4 -10z"/>
<path d="M5927 16364 c-4 -4 -7 -12 -7 -17 0 -6 3 -7 6 -4 4 3 15 2 24 -3 15
-8 18 -6 16 8 -3 18 -27 28 -39 16z"/>
<path d="M10654 16351 c3 -5 15 -11 26 -14 17 -4 19 -3 9 9 -12 15 -44 20 -35
5z"/>
<path d="M10782 16328 c3 -7 15 -14 29 -16 24 -4 24 -3 4 12 -24 19 -38 20
-33 4z"/>
<path d="M11040 16240 c0 -5 5 -10 10 -10 6 0 10 5 10 10 0 6 -4 10 -10 10 -5
0 -10 -4 -10 -10z"/>
<path d="M11106 16225 c4 -8 8 -15 10 -15 2 0 4 7 4 15 0 8 -4 15 -10 15 -5 0
-7 -7 -4 -15z"/>
<path d="M11168 16193 c6 -2 9 -10 6 -15 -4 -7 -2 -8 4 -4 18 11 14 26 -5 25
-11 0 -13 -3 -5 -6z"/>
<path d="M11207 16192 c-3 -4 3 -13 13 -20 15 -9 21 -8 32 5 10 13 10 15 0 9
-7 -4 -19 -3 -27 4 -7 6 -16 7 -18 2z"/>
<path d="M11495 16080 c3 -5 13 -10 21 -10 8 0 12 5 9 10 -3 6 -13 10 -21 10
-8 0 -12 -4 -9 -10z"/>
<path d="M11585 16020 c-3 -5 -1 -10 4 -10 6 0 11 5 11 10 0 6 -2 10 -4 10 -3
0 -8 -4 -11 -10z"/>
<path d="M11705 16010 c-3 -5 -1 -10 4 -10 6 0 11 5 11 10 0 6 -2 10 -4 10 -3
0 -8 -4 -11 -10z"/>
<path d="M11984 15849 c0 -13 5 -18 15 -14 8 3 18 0 22 -7 4 -7 11 -10 14 -6
3 3 -7 15 -22 26 -28 20 -29 20 -29 1z"/>
<path d="M12075 15790 c4 -6 11 -8 16 -5 14 9 11 15 -7 15 -8 0 -12 -5 -9 -10z"/>
<path d="M12135 15770 c-3 -5 -2 -10 4 -10 5 0 18 -3 28 -7 17 -6 17 -6 1 10
-19 20 -24 21 -33 7z"/>
<path d="M12297 15696 c-3 -8 2 -16 12 -19 14 -3 17 0 14 14 -6 22 -19 25 -26
5z"/>
<path d="M12340 15660 c0 -5 7 -10 16 -10 8 0 12 5 9 10 -3 6 -10 10 -16 10
-5 0 -9 -4 -9 -10z"/>
<path d="M12690 15489 c0 -5 5 -7 10 -4 6 3 10 8 10 11 0 2 -4 4 -10 4 -5 0
-10 -5 -10 -11z"/>
<path d="M12710 15440 c0 -6 6 -10 14 -10 8 0 16 -5 18 -11 2 -6 11 -10 20 -8
11 3 6 9 -18 21 -19 10 -34 13 -34 8z"/>
<path d="M13000 15340 c0 -5 5 -10 10 -10 6 0 10 5 10 10 0 6 -4 10 -10 10 -5
0 -10 -4 -10 -10z"/>
<path d="M13055 15310 c3 -5 8 -10 11 -10 2 0 4 5 4 10 0 6 -5 10 -11 10 -5 0
-7 -4 -4 -10z"/>
<path d="M12922 15301 c4 -13 18 -16 19 -4 0 4 -5 9 -11 12 -7 2 -11 -2 -8 -8z"/>
<path d="M12980 15260 c0 -6 7 -10 15 -10 8 0 15 2 15 4 0 2 -7 6 -15 10 -8 3
-15 1 -15 -4z"/>
<path d="M13096 15192 c-2 -4 7 -12 20 -19 13 -6 24 -7 24 -2 0 12 -38 31 -44
21z"/>
<path d="M13175 15140 c3 -5 11 -10 16 -10 6 0 7 5 4 10 -3 6 -11 10 -16 10
-6 0 -7 -4 -4 -10z"/>
<path d="M13500 14896 c0 -8 7 -16 15 -20 13 -4 14 -2 5 14 -13 23 -20 26 -20
6z"/>
<path d="M13595 14820 c14 -15 21 -17 26 -8 11 17 2 28 -23 28 -21 0 -21 -1
-3 -20z"/>
<path d="M13760 14645 c0 -8 7 -15 15 -15 9 0 12 6 9 15 -4 8 -10 15 -15 15
-5 0 -9 -7 -9 -15z"/>
<path d="M14110 14411 c0 -6 5 -13 10 -16 6 -3 10 1 10 9 0 9 -4 16 -10 16 -5
0 -10 -4 -10 -9z"/>
<path d="M14126 14298 c3 -4 9 -8 15 -8 5 0 9 4 9 8 0 5 -7 9 -15 9 -8 0 -12
-4 -9 -9z"/>
<path d="M14208 14253 c7 -3 16 -2 19 1 4 3 -2 6 -13 5 -11 0 -14 -3 -6 -6z"/>
<path d="M14265 14240 c3 -5 8 -10 11 -10 2 0 4 5 4 10 0 6 -5 10 -11 10 -5 0
-7 -4 -4 -10z"/>
<path d="M14247 14214 c9 -15 19 -22 21 -15 2 6 -3 18 -11 26 -24 24 -29 18
-10 -11z"/>
<path d="M14390 14120 c-13 -8 -13 -10 2 -10 9 0 20 5 23 10 8 13 -5 13 -25 0z"/>
<path d="M14515 13950 c-3 -5 -12 -7 -20 -3 -11 4 -13 1 -9 -11 3 -9 11 -15
18 -14 6 2 12 -1 13 -5 2 -8 43 -47 49 -47 9 0 -6 34 -24 53 -12 13 -19 27
-15 30 3 4 4 7 0 7 -3 0 -8 -4 -12 -10z"/>
<path d="M14572 13861 c-11 -6 -9 -9 6 -13 15 -4 19 -2 15 8 -6 16 -4 16 -21
5z"/>
<path d="M14865 13600 c-3 -5 -1 -10 4 -10 6 0 11 5 11 10 0 6 -2 10 -4 10 -3
0 -8 -4 -11 -10z"/>
<path d="M14920 13450 c0 -5 5 -10 10 -10 6 0 10 5 10 10 0 6 -4 10 -10 10 -5
0 -10 -4 -10 -10z"/>
<path d="M14942 13418 c6 -18 28 -21 28 -4 0 9 -7 16 -16 16 -9 0 -14 -5 -12
-12z"/>
<path d="M14980 13360 c0 -6 7 -10 15 -10 8 0 15 2 15 4 0 2 -7 6 -15 10 -8 3
-15 1 -15 -4z"/>
<path d="M15000 13330 c0 -5 4 -10 9 -10 5 0 13 -9 16 -20 7 -23 25 -27 25 -7
0 14 -31 47 -43 47 -4 0 -7 -4 -7 -10z"/>
<path d="M15164 13123 c10 -11 37 -12 30 -2 -3 5 -12 9 -21 9 -9 0 -13 -3 -9
-7z"/>
<path d="M15251 13064 c0 -11 3 -14 6 -6 3 7 2 16 -1 19 -3 4 -6 -2 -5 -13z"/>
<path d="M15240 13009 c0 -5 5 -7 10 -4 6 3 10 8 10 11 0 2 -4 4 -10 4 -5 0
-10 -5 -10 -11z"/>
<path d="M15340 12856 c0 -2 7 -7 16 -10 8 -3 12 -2 9 4 -6 10 -25 14 -25 6z"/>
<path d="M15445 12740 c-3 -6 1 -7 9 -4 18 7 21 14 7 14 -6 0 -13 -4 -16 -10z"/>
<path d="M15456 12695 c4 -8 7 -15 9 -15 2 0 5 7 9 15 3 9 0 15 -9 15 -9 0
-12 -6 -9 -15z"/>
<path d="M15484 12647 c3 -10 6 -25 6 -33 0 -8 5 -14 10 -14 15 0 12 22 -7 45
-14 18 -15 18 -9 2z"/>
<path d="M15564 12613 c10 -11 37 -12 30 -2 -3 5 -12 9 -21 9 -9 0 -13 -3 -9
-7z"/>
<path d="M15586 12533 c-6 -14 -5 -15 5 -6 7 7 10 15 7 18 -3 3 -9 -2 -12 -12z"/>
<path d="M15620 12540 c0 -5 5 -10 11 -10 5 0 7 5 4 10 -3 6 -8 10 -11 10 -2
0 -4 -4 -4 -10z"/>
<path d="M15742 12176 c1 -14 5 -23 9 -20 4 2 9 -6 12 -18 4 -12 9 -19 13 -16
8 9 -15 78 -27 78 -5 0 -8 -11 -7 -24z"/>
<path d="M15904 11981 c2 -25 26 -24 25 1 0 21 -1 22 -8 3 -7 -16 -9 -17 -13
-5 -4 11 -5 12 -4 1z"/>
<path d="M15921 11913 c-1 -18 4 -33 9 -33 12 0 12 17 0 45 -7 17 -9 15 -9
-12z"/>
<path d="M16090 11450 c6 -11 15 -20 19 -20 5 0 7 9 4 20 -3 11 -12 20 -20 20
-11 0 -11 -4 -3 -20z"/>
<path d="M16108 11414 c-6 -5 20 -64 28 -64 10 0 3 30 -11 43 -8 8 -11 17 -8
21 4 3 4 6 1 6 -2 0 -7 -3 -10 -6z"/>
<path d="M16188 11413 c6 -2 12 -12 12 -21 0 -13 3 -13 12 -4 10 10 10 15 -2
22 -8 5 -19 9 -25 9 -5 0 -4 -3 3 -6z"/>
<path d="M16217 11218 c-2 -23 -8 -52 -13 -63 -7 -17 -6 -18 8 -5 9 8 15 16
13 18 -1 2 1 18 5 36 4 19 4 39 0 46 -4 6 -10 -7 -13 -32z"/>
<path d="M16246 11018 c3 -5 10 -6 15 -3 13 9 11 12 -6 12 -8 0 -12 -4 -9 -9z"/>
<path d="M16278 10939 c-4 -12 35 -143 52 -171 5 -10 10 -27 10 -39 0 -19 21
-49 34 -49 3 0 6 7 6 15 0 8 -4 15 -10 15 -5 0 -10 7 -10 16 0 8 4 13 9 9 13
-7 5 33 -10 51 -6 8 -16 11 -22 7 -6 -4 -8 2 -5 15 4 12 2 20 -3 16 -5 -3 -9
12 -9 33 0 30 -3 35 -11 23 -8 -12 -10 -9 -6 11 4 27 -18 70 -25 48z"/>
<path d="M16381 10914 c0 -11 3 -14 6 -6 3 7 2 16 -1 19 -3 4 -6 -2 -5 -13z"/>
<path d="M16367 10846 c-3 -8 -2 -18 4 -22 16 -9 22 2 11 21 -8 15 -10 16 -15
1z"/>
<path d="M16377 10668 c-15 -5 -24 -14 -21 -20 4 -6 10 -5 15 3 7 11 9 10 9
-3 0 -9 -5 -18 -12 -20 -9 -3 -9 -6 0 -12 7 -4 14 0 18 11 3 10 10 26 15 36 5
9 8 17 7 16 -2 0 -15 -5 -31 -11z"/>
<path d="M16400 10480 c0 -5 7 -7 15 -4 8 4 15 8 15 10 0 2 -7 4 -15 4 -8 0
-15 -4 -15 -10z"/>
<path d="M16453 10320 c0 -22 4 -40 8 -40 5 0 9 18 9 40 0 22 -4 40 -9 40 -4
0 -8 -18 -8 -40z"/>
<path d="M16510 10319 c0 -11 5 -17 10 -14 6 3 10 13 10 21 0 8 -4 14 -10 14
-5 0 -10 -9 -10 -21z"/>
<path d="M16507 10283 c-8 -13 -5 -83 3 -78 4 3 8 23 8 45 1 39 -2 47 -11 33z"/>
<path d="M16461 10234 c0 -11 3 -14 6 -6 3 7 2 16 -1 19 -3 4 -6 -2 -5 -13z"/>
<path d="M16520 10190 c0 -5 5 -10 10 -10 6 0 10 5 10 10 0 6 -4 10 -10 10 -5
0 -10 -4 -10 -10z"/>
<path d="M16525 10082 c9 -6 12 -35 17 -179 1 -24 5 -43 9 -43 5 0 6 42 3 93
-3 50 -5 102 -6 115 0 14 -6 22 -17 22 -9 0 -12 -3 -6 -8z"/>
<path d="M16548 9813 c7 -3 16 -2 19 1 4 3 -2 6 -13 5 -11 0 -14 -3 -6 -6z"/>
<path d="M16563 9768 c-2 -18 0 -20 7 -8 12 18 13 30 2 30 -4 0 -9 -10 -9 -22z"/>
<path d="M16580 9706 c0 -2 7 -7 16 -10 8 -3 12 -2 9 4 -6 10 -25 14 -25 6z"/>
<path d="M16560 9680 c0 -5 5 -10 11 -10 5 0 7 5 4 10 -3 6 -8 10 -11 10 -2 0
-4 -4 -4 -10z"/>
<path d="M16614 9595 c8 -8 17 -15 20 -15 3 0 3 7 0 15 -4 8 -13 15 -21 15
-12 0 -12 -2 1 -15z"/>
<path d="M16608 9563 c7 -3 16 -2 19 1 4 3 -2 6 -13 5 -11 0 -14 -3 -6 -6z"/>
<path d="M16653 9564 c3 -3 1 -18 -4 -33 -9 -24 -8 -25 6 -7 18 24 20 46 3 46
-6 0 -9 -3 -5 -6z"/>
<path d="M16627 9437 c3 -24 0 -39 -12 -50 -15 -16 -15 -17 5 -17 12 0 18 4
15 10 -4 6 -2 17 4 24 8 9 8 22 1 40 -13 36 -20 33 -13 -7z"/>
<path d="M16691 9354 c0 -11 3 -14 6 -6 3 7 2 16 -1 19 -3 4 -6 -2 -5 -13z"/>
<path d="M16623 9345 c-16 -18 -10 -45 13 -58 18 -10 18 -10 2 16 -15 22 -15
26 -3 29 8 2 11 8 7 14 -5 9 -10 8 -19 -1z"/>
<path d="M16670 9273 c0 -14 3 -23 7 -19 10 10 11 46 1 46 -4 0 -8 -12 -8 -27z"/>
<path d="M16677 9200 c3 -11 7 -20 9 -20 2 0 4 9 4 20 0 11 -4 20 -9 20 -5 0
-7 -9 -4 -20z"/>
<path d="M16623 9170 c-1 -11 2 -20 6 -20 5 0 11 9 14 20 3 12 0 20 -7 20 -6
0 -12 -9 -13 -20z"/>
<path d="M16700 9069 c0 -5 5 -7 10 -4 6 3 10 8 10 11 0 2 -4 4 -10 4 -5 0
-10 -5 -10 -11z"/>
<path d="M16642 8945 c0 -19 4 -35 9 -35 4 0 6 8 2 18 -5 13 -3 14 6 6 10 -9
10 -16 -1 -34 -10 -18 -10 -24 0 -27 6 -3 12 -9 12 -14 0 -6 -3 -8 -8 -6 -4 3
-6 -45 -4 -106 3 -70 8 -115 15 -119 9 -6 9 -8 0 -8 -7 0 -13 -7 -13 -15 0 -8
4 -15 9 -15 15 0 20 27 11 59 -6 21 -5 31 2 31 6 0 6 6 -2 15 -9 10 -9 15 -1
15 6 0 11 5 11 11 0 5 -6 7 -12 3 -10 -6 -10 -4 0 7 6 7 12 18 12 24 0 5 -5 3
-10 -5 -6 -9 -10 -10 -10 -3 0 6 5 15 10 18 6 3 10 11 10 16 0 6 -6 7 -12 3
-8 -5 -7 0 2 11 11 14 11 17 1 11 -10 -7 -11 -3 -6 15 11 32 12 109 3 109 -5
0 -8 6 -8 14 0 7 -6 19 -14 25 -12 10 -14 6 -14 -24z m33 -55 c3 -5 1 -10 -4
-10 -6 0 -11 5 -11 10 0 6 2 10 4 10 3 0 8 -4 11 -10z"/>
<path d="M16872 8690 c0 -14 2 -19 5 -12 2 6 2 18 0 25 -3 6 -5 1 -5 -13z"/>
<path d="M16662 8549 c1 -20 4 -26 9 -17 7 10 9 9 9 -4 0 -10 -4 -18 -10 -18
-5 0 -10 -9 -10 -19 0 -15 5 -18 23 -13 17 5 18 7 5 10 -14 3 -15 6 -3 29 14
27 11 48 -6 38 -5 -4 -9 -2 -9 4 0 5 6 12 13 14 7 3 6 6 -5 6 -12 1 -16 -7
-16 -30z"/>
<path d="M16670 8460 c-13 -8 -12 -10 3 -10 9 0 17 5 17 10 0 12 -1 12 -20 0z"/>
<path d="M16680 8419 c0 -11 4 -18 10 -14 5 3 7 12 3 20 -7 21 -13 19 -13 -6z"/>
<path d="M16660 8392 c0 -20 4 -31 10 -27 6 3 10 1 10 -4 0 -6 -5 -11 -12 -11
-6 0 -9 -2 -6 -5 11 -11 37 7 35 25 -1 11 -6 16 -16 12 -8 -3 -12 -1 -8 4 3 6
2 16 -4 24 -6 11 -9 6 -9 -18z"/>
<path d="M16660 8280 c0 -5 5 -10 11 -10 5 0 7 5 4 10 -3 6 -8 10 -11 10 -2 0
-4 -4 -4 -10z"/>
<path d="M16667 8253 c-12 -12 -7 -23 11 -23 13 0 14 2 3 9 -11 7 -11 9 0 14
8 3 9 6 3 6 -6 1 -14 -2 -17 -6z"/>
<path d="M16660 8150 c0 -11 4 -20 8 -20 4 0 8 9 8 20 0 11 -4 20 -8 20 -4 0
-8 -9 -8 -20z"/>
<path d="M16660 8013 c3 -47 0 -60 -10 -38 -8 19 -9 19 -9 -2 -1 -26 17 -31
26 -7 5 13 7 13 14 2 6 -9 9 -5 9 14 0 15 -5 30 -10 33 -6 4 -8 11 -5 16 4 5
1 9 -5 9 -6 0 -11 -12 -10 -27z"/>
<path d="M16736 7912 c-3 -6 -1 -14 5 -17 14 -9 20 -2 10 14 -6 8 -11 9 -15 3z"/>
<path d="M16633 7830 c-1 -11 2 -20 5 -20 4 0 8 9 9 20 1 11 -2 20 -5 20 -4 0
-8 -9 -9 -20z"/>
<path d="M16627 7713 c-4 -3 -7 -22 -6 -42 0 -20 3 -30 6 -23 2 6 10 9 15 6 7
-5 8 -2 2 7 -4 8 -7 24 -5 37 3 23 -1 27 -12 15z"/>
<path d="M16622 7620 c3 -8 1 -23 -4 -34 -7 -12 -7 -16 0 -12 6 4 15 -2 21
-11 6 -10 11 -13 11 -6 0 6 -4 15 -10 18 -5 3 -10 11 -10 16 0 6 6 7 13 3 7
-5 7 -1 -3 12 -22 29 -23 30 -18 14z"/>
<path d="M16671 7593 c-9 -10 -10 -18 -2 -26 7 -7 12 -6 17 6 9 25 1 37 -15
20z"/>
<path d="M16610 7546 c0 -7 -3 -28 -6 -45 -5 -24 -3 -31 7 -29 16 3 27 43 21
71 -5 20 -22 23 -22 3z"/>
<path d="M16683 7495 c0 -14 3 -25 8 -25 5 0 9 7 9 15 0 8 0 18 1 22 0 4 -4 9
-9 11 -5 1 -9 -9 -9 -23z"/>
<path d="M16594 7438 c2 -13 0 -28 -4 -33 -5 -6 -11 -43 -14 -83 -3 -40 -10
-90 -15 -112 -5 -24 -5 -42 0 -46 9 -5 14 16 11 50 -2 12 3 16 13 12 8 -3 15
-1 15 4 0 6 -5 10 -10 10 -7 0 -7 7 1 21 8 15 8 19 0 15 -16 -10 -13 5 5 25
10 11 13 23 8 31 -13 20 -13 38 -2 38 6 0 8 7 4 15 -3 9 2 24 12 34 26 27 25
41 -3 41 -20 0 -24 -4 -21 -22z"/>
<path d="M16660 7390 c0 -6 7 -19 16 -27 14 -15 16 -14 12 7 -3 24 -28 41 -28
20z"/>
<path d="M16707 7333 c-11 -10 -8 -43 3 -43 5 0 9 11 8 25 -3 28 -2 27 -11 18z"/>
<path d="M16667 7230 c-4 -15 0 -20 16 -20 18 0 19 2 7 10 -13 9 -13 11 0 20
13 8 13 10 -1 10 -9 0 -19 -9 -22 -20z"/>
<path d="M16620 7179 c0 -5 5 -7 10 -4 6 3 10 8 10 11 0 2 -4 4 -10 4 -5 0
-10 -5 -10 -11z"/>
<path d="M16635 7070 c2 -27 15 -38 15 -12 0 11 -4 23 -8 26 -5 3 -8 -4 -7
-14z"/>
<path d="M16685 7000 c-3 -5 -2 -10 4 -10 5 0 13 5 16 10 3 6 2 10 -4 10 -5 0
-13 -4 -16 -10z"/>
<path d="M16735 6980 c-3 -5 -2 -10 4 -10 5 0 13 5 16 10 3 6 2 10 -4 10 -5 0
-13 -4 -16 -10z"/>
<path d="M16640 6973 c8 -4 21 -13 28 -22 11 -14 11 -13 2 7 -6 12 -18 22 -28
21 -14 0 -14 -2 -2 -6z"/>
<path d="M16773 6963 c9 -2 25 -2 35 0 9 3 1 5 -18 5 -19 0 -27 -2 -17 -5z"/>
<path d="M16725 6950 c4 -6 11 -8 16 -5 14 9 11 15 -7 15 -8 0 -12 -5 -9 -10z"/>
<path d="M16743 6922 c-8 -14 -8 -19 1 -19 7 0 13 9 13 19 1 10 1 18 0 18 -1
0 -7 -8 -14 -18z"/>
<path d="M16680 6830 c0 -5 5 -10 10 -10 6 0 10 5 10 10 0 6 -4 10 -10 10 -5
0 -10 -4 -10 -10z"/>
<path d="M16628 6823 c7 -3 16 -2 19 1 4 3 -2 6 -13 5 -11 0 -14 -3 -6 -6z"/>
<path d="M16651 6788 c5 -10 11 -18 12 -18 2 0 3 8 3 18 0 10 -6 19 -13 19 -8
0 -9 -6 -2 -19z"/>
<path d="M16545 6719 c-4 -11 -4 -23 -1 -26 3 -4 6 -1 6 6 0 7 4 10 9 7 5 -4
7 3 4 14 -7 25 -10 25 -18 -1z"/>
<path d="M16738 6733 c7 -3 16 -2 19 1 4 3 -2 6 -13 5 -11 0 -14 -3 -6 -6z"/>
<path d="M16750 6710 c-13 -8 -12 -10 3 -10 9 0 17 5 17 10 0 12 -1 12 -20 0z"/>
<path d="M16633 6695 c0 -8 4 -12 9 -9 5 3 6 10 3 15 -9 13 -12 11 -12 -6z"/>
<path d="M16670 6665 c0 -8 4 -15 10 -15 5 0 7 7 4 15 -4 8 -8 15 -10 15 -2 0
-4 -7 -4 -15z"/>
<path d="M16705 6671 c-6 -11 13 -26 22 -17 4 3 1 6 -6 6 -7 0 -9 5 -6 10 3 6
4 10 1 10 -3 0 -7 -4 -11 -9z"/>
<path d="M16634 6616 c2 -17 -2 -26 -11 -26 -11 0 -11 -3 -1 -14 9 -10 15 -11
19 -2 8 13 5 53 -3 62 -4 3 -5 -6 -4 -20z"/>
<path d="M16675 6630 c3 -5 8 -10 11 -10 2 0 4 5 4 10 0 6 -5 10 -11 10 -5 0
-7 -4 -4 -10z"/>
<path d="M16700 6630 c0 -5 5 -10 11 -10 5 0 7 5 4 10 -3 6 -8 10 -11 10 -2 0
-4 -4 -4 -10z"/>
<path d="M16560 6611 c-17 -7 -27 -61 -11 -61 6 0 11 11 11 24 0 13 6 26 13
29 6 2 10 7 7 9 -3 3 -12 3 -20 -1z"/>
<path d="M16660 6610 c0 -5 5 -10 11 -10 5 0 7 5 4 10 -3 6 -8 10 -11 10 -2 0
-4 -4 -4 -10z"/>
<path d="M16512 6598 c-14 -14 -16 -42 -2 -33 6 3 10 -1 10 -9 0 -8 4 -17 9
-20 4 -3 6 6 3 19 -2 14 -9 25 -14 25 -6 0 -5 7 2 15 15 18 9 20 -8 3z"/>
<path d="M16644 6539 c-19 -22 -19 -22 4 -8 12 8 22 17 22 21 0 12 -6 9 -26
-13z"/>
<path d="M16701 6551 l-24 -6 24 -12 c22 -9 25 -8 26 8 1 11 1 19 0 18 -1 -1
-13 -4 -26 -8z"/>
<path d="M16565 6531 c-3 -6 1 -18 10 -27 21 -21 25 -15 9 14 -7 15 -14 20
-19 13z"/>
<path d="M16686 6503 c-6 -14 -5 -15 5 -6 7 7 10 15 7 18 -3 3 -9 -2 -12 -12z"/>
<path d="M16645 6490 c3 -5 8 -10 11 -10 2 0 4 5 4 10 0 6 -5 10 -11 10 -5 0
-7 -4 -4 -10z"/>
<path d="M16565 6470 c3 -6 1 -10 -6 -10 -7 0 -10 -3 -6 -6 3 -3 13 -2 22 4
16 8 16 9 1 15 -10 4 -15 3 -11 -3z"/>
<path d="M16665 6470 c-3 -5 -1 -10 4 -10 6 0 11 5 11 10 0 6 -2 10 -4 10 -3
0 -8 -4 -11 -10z"/>
<path d="M16628 6426 c-11 -20 -10 -20 9 -4 17 16 21 16 35 2 12 -12 17 -13
23 -3 6 8 4 10 -5 4 -9 -6 -12 -4 -8 6 9 24 -41 20 -54 -5z"/>
<path d="M16511 6424 c0 -11 3 -14 6 -6 3 7 2 16 -1 19 -3 4 -6 -2 -5 -13z"/>
<path d="M16555 6430 c3 -5 10 -10 16 -10 5 0 9 5 9 10 0 6 -7 10 -16 10 -8 0
-12 -4 -9 -10z"/>
<path d="M16440 6389 c0 -11 4 -18 9 -14 6 3 20 -8 32 -25 23 -30 39 -39 39
-19 0 5 -4 7 -10 4 -5 -3 -10 -1 -10 5 0 6 -13 24 -30 40 -27 27 -30 27 -30 9z"/>
<path d="M16580 6386 c14 -18 13 -19 -2 -14 -9 4 -19 1 -21 -6 -4 -9 0 -12 11
-9 27 7 56 32 47 40 -4 5 -10 2 -12 -5 -4 -10 -8 -10 -21 0 -16 12 -16 11 -2
-6z"/>
<path d="M16660 6389 c0 -5 5 -7 10 -4 6 3 10 8 10 11 0 2 -4 4 -10 4 -5 0
-10 -5 -10 -11z"/>
<path d="M16610 6359 c0 -5 5 -7 11 -4 6 4 17 -2 25 -14 16 -22 34 -28 34 -10
0 5 -4 7 -10 4 -5 -3 -10 0 -10 8 0 8 -7 18 -16 21 -23 9 -34 7 -34 -5z"/>
<path d="M16440 6350 c0 -5 5 -10 11 -10 5 0 7 5 4 10 -3 6 -8 10 -11 10 -2 0
-4 -4 -4 -10z"/>
<path d="M16533 6341 c1 -22 41 -26 58 -5 8 10 8 14 0 14 -6 0 -11 -4 -11 -10
0 -15 -16 -12 -34 5 -13 14 -15 13 -13 -4z"/>
<path d="M16438 6323 c-19 -5 -25 -33 -8 -33 6 0 10 5 10 10 0 6 10 15 23 20
23 9 6 11 -25 3z"/>
<path d="M16590 6315 c-7 -9 -8 -15 -2 -15 5 0 12 7 16 15 3 8 4 15 2 15 -2 0
-9 -7 -16 -15z"/>
<path d="M16460 6299 c0 -5 5 -7 10 -4 6 3 10 8 10 11 0 2 -4 4 -10 4 -5 0
-10 -5 -10 -11z"/>
<path d="M16500 6306 c0 -2 7 -6 15 -10 8 -3 15 -1 15 4 0 6 -7 10 -15 10 -8
0 -15 -2 -15 -4z"/>
<path d="M16556 6285 c15 -23 15 -25 0 -26 -28 -2 -34 -4 -41 -10 -3 -4 1 -9
10 -12 8 -4 15 -2 15 4 0 6 4 8 9 4 5 -3 12 -1 16 4 3 6 13 8 23 5 14 -5 15
-4 2 5 -8 6 -12 11 -7 11 8 0 -30 40 -38 40 -3 0 2 -11 11 -25z"/>
<path d="M16623 6290 c-21 -17 -21 -18 -4 -36 10 -11 16 -26 14 -34 -4 -13 -3
-13 6 0 7 10 6 19 -5 31 -18 20 -18 29 2 29 8 0 12 -4 9 -10 -3 -5 -1 -10 5
-10 7 0 10 6 7 14 -3 8 -1 16 6 19 7 2 5 5 -4 9 -8 3 -24 -2 -36 -12z"/>
<path d="M16500 6270 c0 -5 5 -10 10 -10 6 0 10 5 10 10 0 6 -4 10 -10 10 -5
0 -10 -4 -10 -10z"/>
<path d="M16597 6234 c-3 -3 0 -13 8 -20 7 -8 15 -19 18 -26 2 -7 8 -9 13 -5
5 4 4 11 -2 15 -6 4 -15 15 -20 25 -6 10 -13 15 -17 11z"/>
<path d="M16565 6110 c3 -5 8 -10 11 -10 2 0 4 5 4 10 0 6 -5 10 -11 10 -5 0
-7 -4 -4 -10z"/>
<path d="M16426 5683 c-7 -18 12 -35 28 -26 5 3 6 1 2 -5 -3 -6 -15 -9 -26 -7
-11 2 -20 -2 -20 -8 0 -17 48 -18 54 -1 9 23 -4 43 -22 36 -15 -5 -15 -4 -3
11 7 9 9 17 3 17 -5 0 -13 -8 -16 -17z"/>
</g>
</svg>
